<svg xmlns="http://www.w3.org/2000/svg" width="136.208" height="186.322" viewBox="0 0 136.208 186.322"><defs><style>.a,.b{fill:#fff;}.a{stroke:#fff;stroke-width:0.4px;}.c{fill:#be894b;}.d{fill:#454546;}</style></defs><g transform="translate(0.199)"><path class="a" d="M156.329,399.1a.373.373,0,0,1-.089-.018V239.949l.044-.02.048,0c.008.153.023.3.023.458q0,78.839,0,157.677C156.353,398.411,156.337,398.754,156.329,399.1Z" transform="translate(-156.239 -233.285)"/><path class="a" d="M439.8,399.081a.374.374,0,0,1-.089.018c-.008-.172-.024-.343-.024-.515q0-78.752,0-157.5c0-.383.013-.764.021-1.147l.048,0,.044.02Z" transform="translate(-303.987 -233.285)"/><path class="b" d="M170.142,226.05h122.48a.583.583,0,0,1,.017.09c-.172.008-.344.023-.515.023q-60.6,0-121.2,0c-.267,0-.535-.014-.8-.022A.53.53,0,0,1,170.142,226.05Z" transform="translate(-163.477 -226.05)"/><path class="c" d="M156.429,232.8a7.093,7.093,0,0,1,6.555-6.557c.267.008.535.022.8.022q60.6,0,121.2,0c.171,0,.343-.015.515-.023a7.093,7.093,0,0,1,6.555,6.557c-.007.383-.021.765-.021,1.147q0,78.752,0,157.5c0,.172.016.343.024.515a7.125,7.125,0,0,1-7.011,6.642c-.153,0-.306,0-.46,0q-60.345,0-120.69,0a7.143,7.143,0,0,1-6.635-3.754,6.243,6.243,0,0,1-.835-2.894c.008-.344.023-.688.023-1.032q0-78.839,0-157.677C156.451,233.1,156.437,232.949,156.429,232.8Zm134.922,79.642V234.024c0-.287,0-.574,0-.862a5.992,5.992,0,0,0-.881-3.051,6.329,6.329,0,0,0-5.741-3.17q-60.49,0-120.981,0c-.134,0-.268,0-.4,0a5.923,5.923,0,0,0-2.951.826,6.424,6.424,0,0,0-3.264,5.92q.011,58.48.005,116.96,0,20.192,0,40.384a7.61,7.61,0,0,0,.2,1.992c.819,3.052,3.309,4.861,6.746,4.861q60.175,0,120.349,0a7.919,7.919,0,0,0,2.272-.266,6.413,6.413,0,0,0,4.656-6.424Q291.352,351.817,291.351,312.438Z" transform="translate(-156.336 -226.149)"/><path class="d" d="M262.84,598a4.392,4.392,0,0,0-.428,1.451,2,2,0,0,0,.832,1.906,2.139,2.139,0,0,0,2.19.116,1.638,1.638,0,0,0,.96-1.627c-.008-1.819,0-3.638,0-5.457a.981.981,0,0,1,.825-.9c.314,0,.161.258.163.384.013,1.417.006,2.834.01,4.251,0,.491-.115,1.08.458,1.312a2.7,2.7,0,0,0,2.117-.016c.351-.152.4-.537.406-.892.007-.517,0-1.034,0-1.551,0-.867,0-.867.943-1.179,0,.851-.005,1.687,0,2.522.008.982.3,1.28,1.267,1.27a12.434,12.434,0,0,0,2.633-.119,4.593,4.593,0,0,0,1.971-1c.307-.257.291-.452.088-.76a2.157,2.157,0,0,0-3.493-.616l-.245.185a.955.955,0,0,1,.436-1.229,2.44,2.44,0,0,1,2.8-.064,4.895,4.895,0,0,1,1.481,1.576.831.831,0,0,1-.118,1.222c-.377.318-.215.464.153.6a6.6,6.6,0,0,0,2.784.168c.463-.035.653-.433.687-.868.023-.3.007-.612.007-.919,0-.872,0-.872.943-1.235v1.768c0,.471.013.984.521,1.175a2.069,2.069,0,0,0,1.773-.067.875.875,0,0,0,.375-.8c.017-.4.008-.8.008-1.206,0-.893,0-.893.958-1.251,0,.777,0,1.532,0,2.287.006.852.3,1.145,1.128,1.159,1.172.02,1.5-.214,1.527-1.126.016-.5,0-1,0-1.494,0-.868,0-.868.943-1.18,0,.853,0,1.689,0,2.524,0,.941.335,1.266,1.284,1.276,1.807.018,1.887-.06,1.887-1.848a4.453,4.453,0,0,0-.007-.746c-.123-.717.251-1.042.95-1.207,0,.827,0,1.638,0,2.45,0,.483-.029,1.037.524,1.224a2.265,2.265,0,0,0,1.989-.106c.361-.226.374-.646.375-1.034,0-1.3.044-2.606-.017-3.906-.029-.617.379-.717.755-.907.2-.1.22.054.219.2-.013,1.722-.005,3.445-.052,5.167a1.46,1.46,0,0,1-.925,1.356,3.428,3.428,0,0,1-3.089-.11c-.153-.088-.227-.155-.436-.05a3.567,3.567,0,0,1-3.735-.077c-.182-.116-.24-.059-.372.04a2.925,2.925,0,0,1-3.218.03c-.206-.159-.286-.114-.464.022a2.976,2.976,0,0,1-3.086.027c-.261-.2-.4-.191-.6.033a.539.539,0,0,1-.287.183c-1.457.213-2.932.491-4.216-.555a.351.351,0,0,0-.487-.05,7.473,7.473,0,0,1-5.076.673,4.219,4.219,0,0,0-2.062.022,3.449,3.449,0,0,1-2.15-.062c-.295-.1-.32-.015-.4.239a2.99,2.99,0,0,1-4.007,1.8,2.912,2.912,0,0,1-1.554-3.781C261.914,598.07,262.341,598.061,262.84,598Z" transform="translate(-211.107 -417.578)"/><path class="d" d="M351.586,606.167c0-.87-.03-1.713.008-2.553a1.828,1.828,0,0,1,1.72-1.787,3.471,3.471,0,0,1-.226-2.483,2.013,2.013,0,0,1,2.274-1.5,1.794,1.794,0,0,1,1.606,1.966c.006.383-.009.766.014,1.148a.856.856,0,0,0,.809.884,4.753,4.753,0,0,0,.573.015c.546,0,1.092,0,1.712,0a3.028,3.028,0,0,1-.33-2.5,1.982,1.982,0,0,1,2.2-1.522,1.731,1.731,0,0,1,1.663,1.786,6.087,6.087,0,0,1-.025,1.545,1.7,1.7,0,0,1-1.736,1.583c-1.359.027-2.718,0-4.077.009-.5,0-.905-.484-1.314-.421s-.808.406-1.281.416c-.536.012-1.072-.008-1.608.007a.938.938,0,0,0-1.034,1.036,5.122,5.122,0,0,0,.007,1.032C352.663,605.573,352.355,605.983,351.586,606.167ZM356,600.344h0c0-.247.019-.5,0-.742a.833.833,0,0,0-.7-.856.982.982,0,0,0-1.133.468,2.226,2.226,0,0,0,.008,2.19.958.958,0,0,0,1.142.431.794.794,0,0,0,.678-.8C356.016,600.8,356,600.573,356,600.344Zm6.695-.01c-.017-.252-.028-.462-.046-.671-.041-.481-.214-.855-.756-.926a1.01,1.01,0,0,0-1.159.639,2.232,2.232,0,0,0,.084,1.993.957.957,0,0,0,1.132.468.8.8,0,0,0,.686-.8C362.658,600.786,362.679,600.54,362.7,600.333Z" transform="translate(-258.059 -419.845)"/><path class="d" d="M246.5,595.864c0,.613.035,1.228-.011,1.837-.035.458.139.575.546.513.112-.017.231.01.344,0,.326-.045.381.124.372.4s.015.518-.372.462a.76.76,0,0,0-.115,0c-.762.013-.8.016-.75.8.033.534-.137.691-.654.647-.3-.026-.376-.111-.383-.4-.023-1.048-.035-1.048-1.1-1.048H243c-.636,0-.836-.334-.535-.932a8.165,8.165,0,0,1,.491-.775c.754-1.152,1.538-2.285,2.248-3.464.313-.52.736-.374,1.149-.363.221.006.14.237.141.372C246.507,594.562,246.5,595.213,246.5,595.864Zm-3.134,2.347c.678,0,1.249,0,1.819,0,.165,0,.3-.006.3-.232-.005-.945,0-1.891,0-2.836l-.115-.031Z" transform="translate(-201.116 -417.594)"/><path class="d" d="M223.1,595.291c0-.459.013-.918,0-1.376-.011-.29.073-.406.384-.4.956.017,1.913.023,2.869,0,.4-.01.353.224.363.478s-.029.432-.365.418c-.573-.024-1.149.021-1.72-.016-.419-.027-.53.126-.494.517s-.114.846.059,1.123.669.061,1.023.1a2.031,2.031,0,0,1,1.952,2.014,2.3,2.3,0,0,1-1.926,2.462,3.015,3.015,0,0,1-2.223-.552c-.228-.16-.235-.292-.085-.506s.233-.368.522-.162a1.987,1.987,0,0,0,1.195.336,1.3,1.3,0,0,0,1.46-1.335,1.252,1.252,0,0,0-1.335-1.438,3.312,3.312,0,0,0-1.082.039c-.582.165-.632-.1-.6-.556C223.123,596.058,223.1,595.673,223.1,595.291Z" transform="translate(-190.95 -417.594)"/><path class="d" d="M214.593,596.64a1.748,1.748,0,0,1,1.182,1.877,1.98,1.98,0,0,1-1.5,1.882,2.984,2.984,0,0,1-2.616-.462c-.186-.125-.284-.249-.1-.453.139-.153.194-.437.511-.209a2.1,2.1,0,0,0,1.308.339,1.2,1.2,0,0,0,1.305-1.218c.022-.778-.387-1.2-1.23-1.266a6.379,6.379,0,0,0-.688,0c-.3.011-.538.031-.533-.426,0-.418.173-.471.507-.443a4.4,4.4,0,0,0,.688,0,1.042,1.042,0,0,0-.043-2.083,1.926,1.926,0,0,0-1.2.323c-.221.145-.349.154-.492-.1-.126-.221-.206-.367.053-.571a2.841,2.841,0,0,1,2.775-.293C215.767,594.184,215.815,595.611,214.593,596.64Z" transform="translate(-185.025 -417.482)"/><path class="d" d="M234.2,600.486c.776-1.79,1.532-3.535,2.292-5.28.35-.8.355-.8-.538-.8-.535,0-1.071-.023-1.6.008-.4.023-.361-.212-.364-.47s0-.434.349-.427c1.069.021,2.139.015,3.209,0,.273,0,.373.081.36.358a2.4,2.4,0,0,1-.145.893c-.721,1.64-1.426,3.287-2.139,4.931C235.258,600.543,235.256,600.542,234.2,600.486Z" transform="translate(-196.766 -417.595)"/><path class="d" d="M380.064,600.814a16.175,16.175,0,0,1-.085,2.426,2.249,2.249,0,0,1-3.021,1.777.567.567,0,0,1-.467-.7c.023-.25.083-.256.311-.193,1.542.425,2.29-.152,2.3-1.763.009-1.05,0-2.1,0-3.151a.979.979,0,0,1,.786-.871c.245-.02.166.16.167.268C380.068,599.294,380.064,599.982,380.064,600.814Z" transform="translate(-271.045 -420.11)"/><path class="d" d="M342.587,596.945c0,1.052-.021,2.105.01,3.157.012.41-.183.417-.485.413s-.5.013-.493-.4c.022-1.933.009-3.866.011-5.8a.975.975,0,0,1,.8-.806c.27,0,.155.219.156.338C342.592,594.878,342.587,595.912,342.587,596.945Z" transform="translate(-252.871 -417.592)"/><path class="d" d="M328.735,594.333c-.329-.013-.534-.157-.532-.519s.169-.571.552-.564a.542.542,0,0,1-.021,1.083Z" transform="translate(-245.877 -417.457)"/><path class="d" d="M370.7,594.334a.459.459,0,0,1-.494-.505c0-.364.149-.58.537-.58a.479.479,0,0,1,.528.535C371.269,594.109,371.111,594.325,370.7,594.334Z" transform="translate(-267.77 -417.457)"/><path class="d" d="M291.842,611.095c-.005.2-.135.406-.5.42-.393.014-.558-.2-.561-.557a.473.473,0,0,1,.532-.529C291.645,610.435,291.847,610.6,291.842,611.095Z" transform="translate(-226.369 -426.412)"/><path class="d" d="M326.308,593.736c-.008.435-.2.606-.542.6a.48.48,0,0,1-.523-.54.488.488,0,0,1,.574-.543A.46.46,0,0,1,326.308,593.736Z" transform="translate(-244.334 -417.457)"/><path class="d" d="M373.114,593.745a.469.469,0,0,1,.521-.5.494.494,0,0,1,.544.577.476.476,0,0,1-.552.508C373.281,594.324,373.115,594.126,373.114,593.745Z" transform="translate(-269.287 -417.457)"/><path class="d" d="M278.725,611.031a.45.45,0,0,1-.5.485c-.34.006-.535-.129-.551-.494s.158-.583.526-.587C278.536,610.431,278.719,610.622,278.725,611.031Z" transform="translate(-219.536 -426.415)"/><path class="d" d="M281.619,610.92c.013.362-.1.583-.473.6a.49.49,0,0,1-.578-.538.482.482,0,0,1,.522-.543C281.418,610.431,281.638,610.579,281.619,610.92Z" transform="translate(-221.046 -426.415)"/><path class="c" d="M302.961,319.548a7.182,7.182,0,0,0,1.859,3.125,8.44,8.44,0,0,0,4.431,1.864,19.348,19.348,0,0,0,8.289-.6,5.5,5.5,0,0,0,3.858-3.477l.291-.718c.172-.013.176.11.2.187a6.534,6.534,0,0,0,5.139,4.407,18.731,18.731,0,0,0,9.627-.508,5.481,5.481,0,0,0,3.7-3.789,12.858,12.858,0,0,0,.721-4.221q.015-9.708.02-19.416c0-.385-.125-.484-.492-.481-2.087.014-4.175.022-6.261-.005-.474-.006-.559.153-.558.584.013,5.285.007,10.57.01,15.855a9.55,9.55,0,0,1-.309,2.555,4.2,4.2,0,0,1-3.43,3.229,8.935,8.935,0,0,1-3.983-.064,4.488,4.488,0,0,1-3.415-4.077,14.453,14.453,0,0,1-.113-1.947c0-5.17-.008-10.34.014-15.51,0-.517-.137-.632-.635-.625q-2.9.045-5.8,0c-.5-.008-.641.116-.639.63q.03,7.87.01,15.74a9.867,9.867,0,0,1-.274,2.445,4.309,4.309,0,0,1-3.544,3.405,8.932,8.932,0,0,1-3.535.038,4.644,4.644,0,0,1-3.984-4.644c-.118-1.932-.057-3.866-.063-5.8-.011-3.715-.016-7.43.011-11.144,0-.573-.169-.693-.709-.684q-2.957.051-5.916.006c-.514-.007-.671.115-.67.655.013,5.572,0,11.144-.012,16.716a18.124,18.124,0,0,1-.237,3.029c-.155.9-.6,1.3-1.3,1.236-.2-.018-.24-.057-.212-.272a108.588,108.588,0,0,0,.484-13.76q.021-4.164-.008-8.329c0-.436.121-.541.546-.539q4.337.028,8.674,0c.487,0,.6.136.6.608q-.024,8.53-.008,17.061a9.8,9.8,0,0,0,.194,2.052,2.9,2.9,0,0,0,2.6,2.529,11.9,11.9,0,0,0,3.545-.024,2.689,2.689,0,0,0,2.257-2.091,10.651,10.651,0,0,0,.3-3.016q.022-8.243-.005-16.487c0-.509.131-.637.636-.632q4.194.039,8.387,0c.463,0,.565.135.564.577-.014,5.745-.008,11.489-.011,17.234a7.937,7.937,0,0,0,.2,1.82,3.144,3.144,0,0,0,2.708,2.605,9.98,9.98,0,0,0,3.315.015c1.47-.243,2.182-1.117,2.4-2.735a15.522,15.522,0,0,0,.115-2.118c0-5.591.007-11.183-.014-16.774,0-.519.145-.629.639-.625q4.337.038,8.674.007c.435,0,.581.091.58.56-.017,6.778-.01,13.557-.014,20.335a15.935,15.935,0,0,1-.569,4.425,6.95,6.95,0,0,1-4.852,5.082,19.546,19.546,0,0,1-11.2.18,8.2,8.2,0,0,1-3.685-2.244c-.245-.256-.376-.345-.626.016a4.646,4.646,0,0,1-2.177,1.634,18.1,18.1,0,0,1-11.511.941,9.467,9.467,0,0,1-4.55-2.657c-.241-.256-.356-.226-.56.026a8.335,8.335,0,0,1-5.8,2.869,14.814,14.814,0,0,1-9.675-2.348c-.252-.15-.527-.436-.571.182-.261,3.673-2.512,5.666-5.78,6.769a17.637,17.637,0,0,1-5.815.881c-.432,0-.548.115-.541.543.025,1.666.021,3.332,0,5,0,.368.113.5.474.522a17.449,17.449,0,0,0,9.684-1.771c.409-.226.6-.16.774.218a1.816,1.816,0,0,0,.216.338c.222.283.151.445-.166.612a16.435,16.435,0,0,1-5.159,1.672,24.039,24.039,0,0,1-6.694,0c-.363-.044-.474-.183-.472-.546q.022-3.734,0-7.468c0-.432.168-.487.538-.493a20.851,20.851,0,0,0,6.731-.936,6.583,6.583,0,0,0,4.711-4.88,6.147,6.147,0,0,0,.176-1.3q.024-13.212.032-26.424c0-.335-.075-.469-.442-.467q-3.188.024-6.376,0c-.4,0-.47.155-.462.5.02.842.007,1.685.006,2.527-.007,5.515.005,11.03-.034,16.544a23.217,23.217,0,0,1-.311,4.575c-.18.867-.568,1.219-1.277,1.227-.2,0-.323,0-.277-.279a52.364,52.364,0,0,0,.448-8.359q.035-8.673,0-17.345c0-.518.122-.674.659-.669q4.452.042,8.9,0c.481,0,.6.136.6.609-.014,8.559-.006,17.119-.022,25.678a1.025,1.025,0,0,0,.552,1.008,15.027,15.027,0,0,0,6.928,2.544,11.275,11.275,0,0,0,5.075-.684,5.975,5.975,0,0,0,3.355-3.508Z" transform="translate(-217.181 -261.802)"/><path class="c" d="M194.416,316.6a20.471,20.471,0,0,1-1.566-1.859,11.711,11.711,0,0,1,.367-14.073,14.243,14.243,0,0,1,10.925-5.814,17.893,17.893,0,0,1,10.737,2.414,12.416,12.416,0,0,1,6.354,10.056,11,11,0,0,1-2.2,8.2,5.833,5.833,0,0,1-4.845,2.3c-2.815-.026-5.63.021-8.443-.013a8.445,8.445,0,0,1-6.508-2.912,7.191,7.191,0,0,1,1.569-10.94c3.633-2.376,7.357-2.216,11.036-.025a10.038,10.038,0,0,1,2.769,2.387,1.38,1.38,0,0,1-.13,2.1,10.967,10.967,0,0,0-4.628-3.923,8.132,8.132,0,0,0-8.347.7c-3.6,2.439-3.573,7.233-.008,9.844a7.12,7.12,0,0,0,4.331,1.444c2.7-.01,5.4-.064,8.1.019a4.573,4.573,0,0,0,4.145-2.207,9.769,9.769,0,0,0,1.594-7.061c-.769-5.56-4.318-9.257-10.037-10.517a15.586,15.586,0,0,0-9,.223c-3.76,1.41-6.637,3.8-7.886,7.765a11.568,11.568,0,0,0,3.779,12.461c.217.178.434.357.772.635-3.6.057-6.962-.112-9.365-3.105a8.755,8.755,0,0,1-1.744-5.3,23.883,23.883,0,0,1,1.2-7.845c.18-.6.371-1.206.583-1.8.114-.319.1-.509-.254-.671-1.529-.7-3.052-1.419-4.56-2.166-.426-.212-.55-.054-.7.307a31.386,31.386,0,0,0-2.228,8.457,27.462,27.462,0,0,0,.664,10.189,10.488,10.488,0,0,0,4.142,5.885,15.31,15.31,0,0,0,9.359,3.1c7.2-.023,14.4-.007,21.6-.007a.736.736,0,0,1,.752,1.029.223.223,0,0,1-.242.186c-.134,0-.268,0-.4,0-7.525,0-15.05.055-22.574-.022a15.631,15.631,0,0,1-10.47-4.071,13.013,13.013,0,0,1-3.995-7.7,31.792,31.792,0,0,1,1.084-14.681,20.908,20.908,0,0,1,1.706-4.249c.2-.366.393-.419.772-.26,2.045.862,4,1.916,6.025,2.822.449.2,1.1.249,1.287.661s-.258.916-.426,1.377a24.987,24.987,0,0,0-1.892,8.925,7.677,7.677,0,0,0,2.205,5.784A7.774,7.774,0,0,0,194.416,316.6Z" transform="translate(-167.911 -261.882)"/><path class="c" d="M273.923,408.767c-.2.256-.31.381-.4.517a9.569,9.569,0,0,1-7.228,4.019,22.855,22.855,0,0,1-2.809.108c-4.04,0-8.081.007-12.121-.009-.442,0-.587.1-.581.566q.04,2.872,0,5.744c-.007.486.14.6.611.6q8.444-.024,16.889,0c.208,0,.538-.141.607.139a2.506,2.506,0,0,1-.008,1.021c-.036.2-.3.114-.456.114-1.4,0-2.8,0-4.193,0-4.691,0-9.383-.005-14.074.015-.494,0-.648-.1-.643-.626q.043-4.078,0-8.157c0-.5.1-.677.651-.674,4.941.024,9.882-.044,14.821.035a8.8,8.8,0,0,0,7.325-3.713,8.166,8.166,0,0,0-3.81-12.621,9.651,9.651,0,0,0-3.636-.7c-3.312.01-6.625.017-9.938-.011-.545,0-.661.163-.652.673.03,1.819.033,3.638,0,5.457-.011.54.115.716.684.708q3.933-.059,7.867.078a11.837,11.837,0,0,1,2.106.234,1.4,1.4,0,0,1,.85.441.907.907,0,0,1,.165.968c-.114.22-.452.041-.69.021-1.1-.093-2.208-.214-3.315-.275-2.773-.152-5.55-.152-8.326-.14-.479,0-.608-.13-.6-.607.023-2.738.018-5.476,0-8.215,0-.417.059-.6.551-.6,3.7.026,7.392-.02,11.087.034a11.075,11.075,0,0,1,7.024,2.276A8.947,8.947,0,0,1,275.3,403.4c-.01,2.93-.017,5.86.01,8.789a12.442,12.442,0,0,0,.532,3.676,5.624,5.624,0,0,0,4.968,4.229,19.374,19.374,0,0,0,5.494-.042,5.8,5.8,0,0,0,4.84-4.89,16.678,16.678,0,0,0,.343-3.533c0-6.434-.008-12.867.013-19.3,0-.548-.168-.654-.671-.647-1.818.029-3.638.012-5.457.012-.748,0-.747,0-.748.724q-.014,7.526-.027,15.051a23.353,23.353,0,0,1-.236,3.375c-.149,1.006-.534,1.434-1.249,1.443-.262,0-.382-.038-.337-.349a72.617,72.617,0,0,0,.452-10.141q.026-5.4-.006-10.8c0-.442.1-.584.566-.58q4.279.033,8.559,0c.445,0,.53.136.53.551-.013,7.142-.006,14.285-.016,21.427a13.339,13.339,0,0,1-.68,4.345,6.389,6.389,0,0,1-5.221,4.609,20.593,20.593,0,0,1-7.365-.043c-2.882-.572-4.479-2.534-5.21-5.285a14.428,14.428,0,0,1-.462-3.518C273.91,411.318,273.923,410.131,273.923,408.767Z" transform="translate(-204.859 -311.729)"/><path class="c" d="M365.922,416.723c-.049.958-.033,1.754-.15,2.541-.437,2.924-1.634,5.334-4.459,6.644a11.821,11.821,0,0,1-4,.939c-.953.083-1.907.16-2.861.208-.332.016-.413.137-.41.449.016,1.7.022,3.409.009,5.112,0,.365.115.518.475.534,3.273.146,6.471-.1,9.388-1.795.372-.216.52-.1.709.217.462.762.475.756-.3,1.15a17.561,17.561,0,0,1-9.544,1.646c-.514-.04-1.025-.127-1.54-.159-.329-.02-.463-.123-.462-.48q.022-3.792,0-7.583c0-.359.11-.448.456-.452a30.448,30.448,0,0,0,5.322-.32c3.892-.74,5.632-2.992,5.942-6.8.119-1.465.054-2.947.055-4.421,0-7.257-.005-14.515.015-21.772,0-.578-.138-.741-.725-.729-1.953.04-3.907.035-5.859,0-.52-.009-.629.148-.628.643q.016,9.939-.019,19.876a19.994,19.994,0,0,1-.305,4.344c-.17.752-.61,1.089-1.231,1.033-.2-.018-.266-.075-.236-.278a75.519,75.519,0,0,0,.463-10.944q.034-7.64,0-15.28c0-.506.125-.64.634-.635q4.279.039,8.559,0c.552-.006.65.174.649.677q-.023,10.053-.01,20.106a8.374,8.374,0,0,0,5.769,8.417,10.2,10.2,0,0,0,6.37.276,5.589,5.589,0,0,0,4.085-4.323,13.261,13.261,0,0,0,.447-3.577c.013-6.587,0-13.174.017-19.761,0-.429-.11-.55-.542-.544-1.914.024-3.83.027-5.744,0-.485-.007-.6.136-.6.608.012,4.845,0,9.689-.006,14.534a28.331,28.331,0,0,1-.236,3.951c-.152,1.076-.524,1.493-1.3,1.525-.268.011-.332-.058-.3-.317.716-5.8.385-11.623.463-17.437.016-1.226.009-2.451,0-3.677,0-.3.045-.449.4-.447q4.423.019,8.847,0c.35,0,.4.142.4.443-.01,7.315,0,14.63-.026,21.944a12.391,12.391,0,0,1-.506,3.4,6.943,6.943,0,0,1-6.585,5.362,12.351,12.351,0,0,1-9.422-3.112,6.8,6.8,0,0,1-.755-.784C366.411,417.413,366.225,417.132,365.922,416.723Z" transform="translate(-258.685 -311.725)"/><path class="c" d="M202.152,403.155a10.815,10.815,0,0,0-6.355-4.491,7.92,7.92,0,0,0-7.247,1.761,6.026,6.026,0,0,0-.767,8.29,8.035,8.035,0,0,0,5.034,3.355,4.954,4.954,0,0,0,.8.058c2.662,0,5.324-.044,7.984.016a4.578,4.578,0,0,0,4.038-2.1,10.122,10.122,0,0,0,1.759-6.236c-.058-5.182-3.561-9.635-9.02-11.188a16.832,16.832,0,0,0-8.781-.39,11.981,11.981,0,0,0-9.026,8c-2.112,6.04-1.032,11.444,3.516,16a13.611,13.611,0,0,0,9.883,4.054c4.136.02,8.272,0,12.407.011.209,0,.518-.133.613.128a1.825,1.825,0,0,1,.1,1.017c-.051.217-.292.124-.449.124-1.264.008-2.528,0-3.791,0-3.063,0-6.127-.018-9.191,0-5.918.043-10.31-2.615-13.321-7.605a16.292,16.292,0,0,1,1.047-18.239,13.244,13.244,0,0,1,8.666-5.041,17.972,17.972,0,0,1,12,1.924,12.168,12.168,0,0,1,6.255,7.369,13.093,13.093,0,0,1-.026,8.344,8.566,8.566,0,0,1-2.617,3.84,5.462,5.462,0,0,1-3.549,1.252c-2.68-.02-5.363-.062-8.041.008a8.518,8.518,0,0,1-7.821-4.455,7.4,7.4,0,0,1,.41-8.65,8.887,8.887,0,0,1,6.139-3.23c3.76-.4,6.789,1.085,9.306,3.774A1.45,1.45,0,0,1,202.152,403.155Z" transform="translate(-167.599 -311.721)"/><path class="d" d="M272.851,249.8a12.471,12.471,0,0,1-1.738-2.016,1,1,0,0,1,.078-1.484,3.975,3.975,0,0,1,6.633.234.868.868,0,0,1,.009,1.106,12.1,12.1,0,0,1-1.825,2.13c.077.193.234.1.344.1,1.168.008,2.336.014,3.5,0,1.007-.012,1.423-.424,1.479-1.425a9.053,9.053,0,0,1,.107-1.6,2.681,2.681,0,0,1,5.318.226c.069.53.062,1.069.1,1.6a1.1,1.1,0,0,0,1.1,1.168,14.117,14.117,0,0,0,4.113-.2,5.418,5.418,0,0,0,2.516-1.423c.2-.193.251-.344.085-.585a6.934,6.934,0,0,0-.768-1,2.549,2.549,0,0,0-3.481-.361c-.279.185-.536.4-.816.615a1.332,1.332,0,0,1,.648-1.669,3.13,3.13,0,0,1,3.561-.112,5.861,5.861,0,0,1,2.156,2.407.957.957,0,0,1-.171,1.154,6.932,6.932,0,0,1-5.112,2.355c-.783.034-1.57,0-2.354.016a2.684,2.684,0,0,1-1.929-.575c-.149-.132-.22-.1-.366.024a2.692,2.692,0,0,1-3.933,0c-.159-.136-.231-.124-.371,0a2.626,2.626,0,0,1-1.822.554c-1.263-.008-2.534.079-3.789-.026a21.248,21.248,0,0,0-3.385,0c-1.351.1-2.716.021-4.076.023a2.412,2.412,0,0,1-1.651-.544c-.183-.159-.292-.155-.475,0a2.4,2.4,0,0,1-1.652.541c-.478,0-.957.01-1.435-.009a2.132,2.132,0,0,1-1.709-.8c-.174-.228-.268-.2-.492-.06a2.54,2.54,0,0,1-3.937-1.556,3.008,3.008,0,0,1,1.839-3.821,2.647,2.647,0,0,1,1.964.257c-.043-.89.766-.8,1.3-1.264v2.343c0,.766-.011,1.532,0,2.3.017.991.454,1.421,1.452,1.446.287.007.575.008.861,0,.967-.031,1.39-.435,1.429-1.414a15.864,15.864,0,0,0,0-2.18,1.027,1.027,0,0,1,.778-1.238,4.741,4.741,0,0,0,.482-.231c0,1.149,0,2.23,0,3.312,0,1.412.343,1.753,1.769,1.754q1.781,0,3.561-.007C272.762,249.873,272.775,249.855,272.851,249.8Zm1.531-4.048a2.99,2.99,0,0,0-2.187,1.1c-.131.144-.18.259-.039.441a9.6,9.6,0,0,0,1.915,1.963.519.519,0,0,0,.711-.01,9.549,9.549,0,0,0,1.873-1.924.31.31,0,0,0-.014-.486A3.141,3.141,0,0,0,274.383,245.754Zm11.219,2.2a3.779,3.779,0,0,0-.19-1.211,1.326,1.326,0,0,0-1.332-.975,1.293,1.293,0,0,0-1.33.972,4.068,4.068,0,0,0,.013,2.484,1.239,1.239,0,0,0,1.184.921,1.314,1.314,0,0,0,1.348-.776A3.26,3.26,0,0,0,285.6,247.952Zm-24.445-.266c0-.325,0-.65,0-.974a.522.522,0,0,0-.152-.41,1.488,1.488,0,0,0-2.222.145,2.464,2.464,0,0,0-.017,2.5,1.351,1.351,0,0,0,1.566.523c.668-.2.828-.437.824-1.212C261.156,248.068,261.157,247.877,261.156,247.686Z" transform="translate(-208.86 -235.298)"/><path class="d" d="M330.846,553.994a4.237,4.237,0,0,1-.327-3.6,2.647,2.647,0,0,1,2.554-1.8,8.956,8.956,0,0,1,2.91.169c.208.045.662-.123.582.4-.1.64-.337.88-.853.838a14.308,14.308,0,0,0-2-.139,3.835,3.835,0,0,0-.848.12,1.38,1.38,0,0,0-1.025,1.055,3.586,3.586,0,0,0-.034,1.538A1.553,1.553,0,0,0,333.559,554c.766,0,1.531,0,2.3,0,.248,0,.485.058.573.3a1.427,1.427,0,0,1,.01.956c-.064.182-.309.082-.47.083q-5.2.008-10.394,0a4.77,4.77,0,0,1-2.262-.225c-.678-.354-1.232-.557-1.915.007a2.117,2.117,0,0,1-1.338.22c-2.048,0-4.1-.01-6.144.005a1.867,1.867,0,0,1-1.494-.59c-.164-.182-.252-.192-.451-.03a3.409,3.409,0,0,1-3.2.577,2.562,2.562,0,0,1-1.838-1.878,5.274,5.274,0,0,1-.063-2.946,2.748,2.748,0,0,1,2.628-2.1,12.4,12.4,0,0,1,3.359.327c.319.064.324.251.323.5q-.008,1.924,0,3.848c0,.788.167.955.936.956q2.842,0,5.685,0c1,0,1.37-.383,1.376-1.4.007-1,0-1.991,0-2.986,0-.241.017-.474.269-.583a1.652,1.652,0,0,1,1.014-.038c.158.034.09.269.091.415,0,1.225.018,2.45-.007,3.675a.619.619,0,0,0,.461.683,2.963,2.963,0,0,0,1,.228C326.265,553.995,328.523,553.994,330.846,553.994Zm-19.032-2.315c0-.5-.024-1,.008-1.49.023-.351-.125-.47-.442-.513a8.007,8.007,0,0,0-1.543-.065,1.6,1.6,0,0,0-1.677,1.477,3.819,3.819,0,0,0-.053,1.084,2.025,2.025,0,0,0,3.163,1.719.839.839,0,0,0,.551-.894C311.782,552.561,311.813,552.118,311.813,551.679Z" transform="translate(-234.665 -394.056)"/><path class="d" d="M251.279,550.013c2.183,0,4.365-.006,6.547.007.354,0,.519-.065.489-.466-.047-.648-.018-1.3-.067-1.949-.089-1.161-.609-1.651-1.789-1.744a9.687,9.687,0,0,0-3.246.272c-.654.172-.608-.271-.738-.636-.175-.49.13-.514.473-.583a11.321,11.321,0,0,1,4.271-.221,2.606,2.606,0,0,1,2.378,2.593,15.311,15.311,0,0,1,.05,1.778.636.636,0,0,0,.462.693,3.231,3.231,0,0,0,1.17.255c.574,0,1.148.007,1.723,0,1.29-.018,1.817-.539,1.821-1.817.007-2.2,0-4.4,0-6.6,0-.79.108-.865.9-.888.389-.011.477.118.475.484-.015,2.259,0,4.517-.012,6.777a6,6,0,0,1-.134,1.31,2.32,2.32,0,0,1-1.887,1.926,9.208,9.208,0,0,1-3.478.025,1.3,1.3,0,0,1-.483-.172c-.4-.264-.721-.426-1.111.069-.2.26-.636.227-.98.227q-6.547,0-13.093,0a7.749,7.749,0,0,1-.915-.075,2.443,2.443,0,0,1-2.3-2.187,9.508,9.508,0,0,1-.112-1.428c-.012-2.125-.008-4.25,0-6.374,0-.257-.131-.62.373-.572.418.04.938-.125,1,.551.012.133,0,.268,0,.4q0,3.273,0,6.547c0,1.241.529,1.79,1.779,1.8C246.992,550.023,249.136,550.013,251.279,550.013Z" transform="translate(-200.775 -390.066)"/><path class="d" d="M346.125,514.221a4.353,4.353,0,0,1-.335-3.557,2.494,2.494,0,0,1,2.129-1.771,9.238,9.238,0,0,1,3.645.152c.15.029.383.04.286.309-.135.373-.1.905-.7.9-.438-.006-.874-.093-1.313-.117a9.353,9.353,0,0,0-1.2,0,1.543,1.543,0,0,0-1.595,1.548,3.485,3.485,0,0,0,.074,1.254,1.541,1.541,0,0,0,1.678,1.322c.8.006,1.608,0,2.411,0,.255,0,.475.079.53.341a1.38,1.38,0,0,1-.026.9c-.074.148-.317.061-.483.061-4.267,0-8.535.017-12.8-.014-.592,0-.758.157-.718.722a4.055,4.055,0,0,1-.132,1.135,2.442,2.442,0,0,1-2.4,2.072,6.361,6.361,0,0,1-2.327-.2c-.631-.173-.336-.6-.293-.973.051-.442.316-.3.582-.241a5.879,5.879,0,0,0,1.365.153c1.286-.019,1.841-.547,1.912-1.841.044-.807.044-.807-.748-.807-.4,0-.8,0-1.205,0a3.1,3.1,0,0,1-3.251-3.946,3.244,3.244,0,0,1,3.321-2.822,9.525,9.525,0,0,1,2.891.356c.3.07.315.258.314.505-.007,1.378.01,2.756-.012,4.134-.006.384.115.483.487.48,2.526-.015,5.053-.007,7.579-.009C345.88,514.252,345.973,514.236,346.125,514.221Zm-9.764-2.018v-.573c0-1.655-.111-1.755-1.79-1.612-.058,0-.115.008-.171.016a2.038,2.038,0,0,0-1.824,2.3,1.819,1.819,0,0,0,1.97,1.917c.477.022.956-.01,1.433.012.308.014.4-.106.388-.4C336.349,513.312,336.361,512.757,336.361,512.2Z" transform="translate(-247.405 -373.42)"/><path class="d" d="M390.783,505.1c0,1.282.023,2.565-.012,3.847a.719.719,0,0,0,.549.808,6.061,6.061,0,0,0,3.777-.1c.515-.16.63-.692.642-1.187.02-.842.012-1.684.012-2.526,0-1.512,0-3.025,0-4.537a.87.87,0,0,1,1.276-.693c.152.09.1.237.1.361-.009,2.45,0,4.9-.042,7.349a2.538,2.538,0,0,1-2.6,2.8,8.3,8.3,0,0,1-2.847-.1c-.412-.126-.739-.535-1.087-.571-.329-.034-.626.541-1.042.595-1.475.192-2.966.443-4.346-.407-.11-.068-.182-.163-.311.018a1.486,1.486,0,0,1-1.328.531c-1.684,0-3.369-.01-5.053.017-.417.006-.487-.169-.445-.506s-.168-.818.488-.812c1.531.012,3.064-.021,4.594.017.543.013.708-.115.7-.683-.029-2.432-.345-2.856-2.71-3.4-.521-.119-1.045-.228-1.568-.339-.619-.132-.476-.539-.4-.98.089-.537.416-.325.682-.269a16.732,16.732,0,0,1,3.042.8,3.312,3.312,0,0,1,2.245,3.379c-.018,1.107.127,1.252,1.23,1.414a8.544,8.544,0,0,0,2.005.031,1.017,1.017,0,0,0,1.071-1.158c.023-1.34.011-2.68.012-4.019q0-1.694,0-3.388c0-.251-.012-.542.259-.649a1.866,1.866,0,0,1,1.019-.027c.175.033.087.267.088.408C390.786,502.463,390.783,503.784,390.783,505.1Z" transform="translate(-271.841 -369.17)"/><path class="d" d="M204.4,510.1c1.187,0,2.374.008,3.561,0,1.106-.01,1.473-.388,1.48-1.5,0-.594,0-1.187,0-1.78,0-.683.509-.56.942-.606.514-.055.429.276.429.573,0,.8.014,1.609-.007,2.412a.568.568,0,0,0,.391.614,3.407,3.407,0,0,0,2.247.167.919.919,0,0,0,.736-.969c-.006-.689-.007-1.378,0-2.067a.883.883,0,0,1,1.292-.7c.157.091.1.237.1.357.007.766.037,1.533-.008,2.3a.917.917,0,0,0,.672,1,2.9,2.9,0,0,0,1.97.068c.706-.229.845-.847.872-1.474.037-.879.012-1.761.016-2.641a.848.848,0,0,1,1.259-.781.2.2,0,0,1,.12.227,30.332,30.332,0,0,1-.1,4.012,2.213,2.213,0,0,1-1.929,1.989,3.269,3.269,0,0,1-3.114-.674c-.162-.151-.235-.141-.408,0a3.311,3.311,0,0,1-4.134.163c-.225-.161-.31-.143-.5.034a2.194,2.194,0,0,1-1.577.576c-2.776,0-5.552.024-8.327-.011a2.6,2.6,0,0,1-2.872-2.808c-.06-2.468-.024-4.939-.032-7.408,0-.2-.01-.4.284-.362.387.049.89-.189,1.062.4a1.87,1.87,0,0,1,.023.514q0,3.244,0,6.489c0,1.34.461,1.839,1.815,1.879,1.243.036,2.488.008,3.732.008Z" transform="translate(-177.736 -369.264)"/><path class="d" d="M222.652,544.982a31.578,31.578,0,0,1-.12,4.093,2.377,2.377,0,0,1-2.127,2.095,17.146,17.146,0,0,1-3.723.044c-.606-.047-1.1-.508-1.621-.622-.455-.1-.924.594-1.547.632a16.55,16.55,0,0,1-3.493-.065,2.454,2.454,0,0,1-2.166-2.633c-.075-2.525-.03-5.053-.045-7.58,0-.261.1-.332.342-.317.406.026.887-.113,1.021.475a2.083,2.083,0,0,1,.011.458c0,2.2,0,4.4,0,6.6,0,1.212.528,1.736,1.749,1.762.517.011,1.034.006,1.551,0,1-.008,1.381-.369,1.4-1.388.018-.918,0-1.837,0-2.757,0-.815.359-1.086,1.15-.907.3.068.214.277.214.447.007,1.206.025,2.413-.008,3.618a.7.7,0,0,0,.563.791,3.216,3.216,0,0,0,.95.191c.957,0,1.914.02,2.871,0a1.5,1.5,0,0,0,1.642-1.7c.007-2.278,0-4.556,0-6.834a.844.844,0,0,1,1.246-.748c.209.1.12.3.121.458C222.655,542.308,222.652,543.514,222.652,544.982Z" transform="translate(-183.121 -389.985)"/><path class="d" d="M379.817,551.735c0,.708.01,1.417,0,2.125,0,.266.07.373.354.368.957-.017,1.915.018,2.871-.022a1.5,1.5,0,0,0,1.564-1.671c.01-.9.006-1.8,0-2.7,0-.27.057-.509.332-.606a1.612,1.612,0,0,1,.957-.015c.155.043.082.273.083.419,0,1.11.013,2.22,0,3.331a2.35,2.35,0,0,1-2.239,2.511,23.2,23.2,0,0,1-3.383.071c-.435,0-.6.125-.544.546a1.176,1.176,0,0,1-.006.172c-.063,3.412-2.583,3.581-4.935,2.962-.589-.155-.257-.612-.223-.955.043-.446.348-.285.589-.235a5.14,5.14,0,0,0,1.649.15,1.6,1.6,0,0,0,1.613-1.729c.052-.9.052-.9-.827-.9a8.035,8.035,0,0,1-2.336-.181,2.684,2.684,0,0,1-2.012-2.261c-.438-2.563.9-4.226,3.491-4.335a9.193,9.193,0,0,1,2.663.348c.289.074.357.213.352.481C379.808,550.318,379.817,551.027,379.817,551.735Zm-1.359.49c0-.554,0-1.108,0-1.662,0-.193.023-.4-.235-.451a3.579,3.579,0,0,0-2.619.213,2.274,2.274,0,0,0-.869,2.587,1.75,1.75,0,0,0,1.8,1.308c.5.012.994-.01,1.49.009.3.011.461-.045.442-.4C378.438,553.3,378.458,552.76,378.458,552.225Z" transform="translate(-269.349 -394.275)"/><path class="d" d="M299.217,513.379a22.3,22.3,0,0,1-.171,3.96,2.368,2.368,0,0,1-2.432,2.149,6.84,6.84,0,0,1-2.221-.166c-.225-.054-.47-.148-.468-.43a1.677,1.677,0,0,1,.214-.876c.069-.112.249-.015.377.012a7.131,7.131,0,0,0,1.534.186,1.6,1.6,0,0,0,1.8-1.587c.153-1.15.152-1.159-.946-1.032a5.616,5.616,0,0,1-1.713-.085,2.968,2.968,0,0,1-2.571-3.215,3.2,3.2,0,0,1,2.64-3.395,8.153,8.153,0,0,1,3.63.254c.292.071.329.247.327.5C299.212,510.824,299.217,511.992,299.217,513.379Zm-1.365-1.218c0-.535-.016-1.071.006-1.606a.377.377,0,0,0-.372-.455,5.143,5.143,0,0,0-1.769-.034,1.9,1.9,0,0,0-1.634,1.924c-.056,1.228.374,1.945,1.354,2.234a4.244,4.244,0,0,0,1.988.037.462.462,0,0,0,.434-.551C297.829,513.2,297.852,512.678,297.852,512.161Z" transform="translate(-227.331 -373.43)"/><path class="d" d="M410.935,553.261a34.3,34.3,0,0,1-.1,3.78,2.534,2.534,0,0,1-2.786,2.447,7.135,7.135,0,0,1-1.934-.2c-.58-.146-.443-.515-.383-.94.072-.508.36-.379.654-.323a5.006,5.006,0,0,0,1.819.136,1.513,1.513,0,0,0,1.353-1.411,1.589,1.589,0,0,0,.014-.172c.011-.344.15-.765,0-1.012-.2-.339-.609.015-.931.02a7.457,7.457,0,0,1-2-.162,2.921,2.921,0,0,1-2.274-3.1,3.142,3.142,0,0,1,2.348-3.377,7.661,7.661,0,0,1,3.965.2c.3.08.249.29.25.493C410.936,550.769,410.935,551.9,410.935,553.261Zm-1.372-1.107c0-.554-.006-1.108,0-1.662,0-.215-.032-.372-.282-.412a4.591,4.591,0,0,0-2.045,0,1.974,1.974,0,0,0-1.447,2.088,1.9,1.9,0,0,0,1.3,2.006,4.185,4.185,0,0,0,1.983.07c.358-.064.525-.211.5-.6C409.536,553.15,409.563,552.651,409.563,552.155Z" transform="translate(-285.58 -394.268)"/><path class="d" d="M263.336,511.38c-1.32,0-2.64,0-3.96,0-.281,0-.552.029-.486-.4.056-.364-.155-.882.493-.9a20.139,20.139,0,0,1,2.237.009c.617.052.723-.182.71-.738-.037-1.51-.015-3.022-.012-4.534a.827.827,0,0,1,1.231-.8c.219.1.124.3.125.452.008,1.664.028,3.329-.009,4.993-.011.528.16.645.65.622.84-.04,1.683,0,2.524-.015,1.457-.029,1.96-.548,1.96-1.991q0-3.3,0-6.6c0-.257-.007-.542.259-.647a1.861,1.861,0,0,1,1.019-.024c.153.029.092.229.092.354,0,2.372.025,4.745-.015,7.116-.028,1.678-.7,2.63-1.951,2.952a5.592,5.592,0,0,1-1.423.143C265.631,511.377,264.483,511.38,263.336,511.38Z" transform="translate(-209.741 -369.244)"/><path class="c" d="M390.606,270.081a4.44,4.44,0,0,1-4.479,4.744,3.88,3.88,0,0,1-3.081-1.647,5.289,5.289,0,0,1-.477-5.74,3.729,3.729,0,0,1,3.461-2.254,4.393,4.393,0,0,1,3.994,2.354A5.135,5.135,0,0,1,390.606,270.081Zm-1.217-.261a4.6,4.6,0,0,0-.04-.643,3.7,3.7,0,0,0-.221-.769,3.041,3.041,0,0,0-5.17-.995,4.239,4.239,0,0,0,.475,5.537,2.816,2.816,0,0,0,3.9-.113A3.609,3.609,0,0,0,389.388,269.82Z" transform="translate(-273.888 -246.449)"/><path class="c" d="M223.665,274.823a4.487,4.487,0,0,1-4.37-4.078,5.567,5.567,0,0,1,.109-2.217,4.1,4.1,0,0,1,3.342-3.307,4.193,4.193,0,0,1,4.34,1.979,5.214,5.214,0,0,1-1.17,6.9A3.634,3.634,0,0,1,223.665,274.823Zm3-4.836a4.774,4.774,0,0,0-.135-1.232,3.466,3.466,0,0,0-2.964-2.439,2.9,2.9,0,0,0-2.837,1.936,4.2,4.2,0,0,0,.413,4.053,2.882,2.882,0,0,0,4.775.167A3.5,3.5,0,0,0,226.666,269.986Z" transform="translate(-189.075 -246.435)"/><path class="c" d="M248.059,270.074a4.782,4.782,0,0,1-1.669,3.766,4.04,4.04,0,0,1-5.855-.623,5.292,5.292,0,0,1-.618-5.632,3.952,3.952,0,0,1,4.272-2.4,4.6,4.6,0,0,1,3.763,3.759C248,269.3,248.021,269.663,248.059,270.074Zm-1.222-.123a7.061,7.061,0,0,0-.048-.8,3.689,3.689,0,0,0-.221-.769,3.039,3.039,0,0,0-5.206-.955,4.246,4.246,0,0,0,.465,5.454,2.814,2.814,0,0,0,3.94-.071A3.5,3.5,0,0,0,246.837,269.951Z" transform="translate(-199.577 -246.419)"/><path class="c" d="M365.915,274.813a4.083,4.083,0,0,1-3.609-2.1,5.3,5.3,0,0,1-.157-5.367,3.927,3.927,0,0,1,4.245-2.154,4.656,4.656,0,0,1,3.7,3.829,5.323,5.323,0,0,1-1.087,4.307A3.94,3.94,0,0,1,365.915,274.813Zm3.04-4.844a4.738,4.738,0,0,0-.135-1.233,3.467,3.467,0,0,0-2.965-2.438,2.9,2.9,0,0,0-2.836,1.937,4.2,4.2,0,0,0,.414,4.053,2.882,2.882,0,0,0,4.775.166A3.492,3.492,0,0,0,368.955,269.969Z" transform="translate(-263.231 -246.417)"/><path class="c" d="M306.876,462.653a4.535,4.535,0,0,1,4.436,4.311,5.326,5.326,0,0,1-.8,3.44,4.068,4.068,0,0,1-6.795.159,5.344,5.344,0,0,1,.422-6.8A3.615,3.615,0,0,1,306.876,462.653Zm3.272,4.872a4.076,4.076,0,0,0-.132-1.25,3.323,3.323,0,0,0-2.707-2.436,2.67,2.67,0,0,0-2.828,1.342,4.345,4.345,0,0,0,.279,4.8,2.838,2.838,0,0,0,2.734,1.114A3.323,3.323,0,0,0,310.147,467.525Z" transform="translate(-232.582 -349.381)"/><path class="c" d="M345.159,274.835a3.927,3.927,0,0,1-3.149-1.863,5.277,5.277,0,0,1-.351-5.505,3.768,3.768,0,0,1,3.393-2.28,4.269,4.269,0,0,1,4.031,2.279,5.229,5.229,0,0,1-1.19,6.548A4.116,4.116,0,0,1,345.159,274.835Zm3.361-4.927a3.484,3.484,0,0,0-.132-1.076,3.333,3.333,0,0,0-2.687-2.459,2.626,2.626,0,0,0-2.7,1.14,4.221,4.221,0,0,0,.56,5.442,2.8,2.8,0,0,0,3.813-.046A3.626,3.626,0,0,0,348.52,269.908Z" transform="translate(-252.572 -246.449)"/><path class="c" d="M327.109,462.655a4.543,4.543,0,0,1,4.4,4.222,5.349,5.349,0,0,1-.841,3.595,4.059,4.059,0,0,1-6.692.164,5.393,5.393,0,0,1,.261-6.769A3.7,3.7,0,0,1,327.109,462.655Zm3.237,4.668a3.661,3.661,0,0,0-.252-1.429,3.072,3.072,0,0,0-5.063-1.17,4.223,4.223,0,0,0,.377,5.709,2.791,2.791,0,0,0,2.352.659A3.409,3.409,0,0,0,330.345,467.323Z" transform="translate(-243.119 -349.383)"/><path class="c" d="M390.917,467.422a4.844,4.844,0,0,1,1.153-3.405,4.133,4.133,0,0,1,6.446.315,5.264,5.264,0,0,1-.533,6.9,4.1,4.1,0,0,1-6.281-.987A5.052,5.052,0,0,1,390.917,467.422Zm4.146-3.636a2.471,2.471,0,0,0-1.735.636,4.148,4.148,0,0,0,.044,5.984,2.856,2.856,0,0,0,4.243-.519,4.128,4.128,0,0,0,.5-3.882A3.275,3.275,0,0,0,395.062,463.786Z" transform="translate(-278.566 -349.364)"/><path class="d" d="M184.438,555.984c-1.184-.052-2.371.065-3.553-.08a2.947,2.947,0,0,1-2.786-3.128,6.345,6.345,0,0,1,.214-1.7c.055-.2,0-.583.413-.421.338.133.879.058.816.674-.027.265-.1.525-.141.789a1.929,1.929,0,0,0,1.668,2.421,8.259,8.259,0,0,0,1.771.1q2.209.009,4.417,0c1.225-.007,1.705-.473,1.734-1.695.022-.88.01-1.759.006-2.639,0-.258,0-.512.277-.636a1.926,1.926,0,0,1,1.016-.05c.092.009.093.153.09.248a31.54,31.54,0,0,1-.088,3.894,2.327,2.327,0,0,1-2.245,2.14C186.847,556.051,185.641,555.935,184.438,555.984Z" transform="translate(-167.633 -394.691)"/><path class="d" d="M320.126,511.074c0,.65.039,1.3-.008,1.95a2.343,2.343,0,0,1-2.249,2.384,6.181,6.181,0,0,1-1.6,0A2.912,2.912,0,0,1,313.7,513.2a4.451,4.451,0,0,1,.032-2.6,3.147,3.147,0,0,1,3.073-2.24,12.071,12.071,0,0,1,3.064.366c.248.047.281.185.278.4-.012.65,0,1.3,0,1.951Zm-1.354.414v-.4c0-1.4,0-1.357-1.391-1.407-1.937-.068-2.582,1.179-2.376,2.817a2.118,2.118,0,0,0,3.231,1.338,1.2,1.2,0,0,0,.534-1.026C318.773,512.368,318.771,511.928,318.772,511.488Z" transform="translate(-238.225 -373.199)"/><path class="c" d="M199.838,372.1a4.463,4.463,0,0,1-3.6,4.853,3.786,3.786,0,0,1-3.85-1.774,5.093,5.093,0,0,1-.332-5.395,4,4,0,0,1,6.858-.469A4.514,4.514,0,0,1,199.838,372.1Zm-7.451.05a4.287,4.287,0,0,0,.795,2.586,3.012,3.012,0,0,0,4.978.079,4.139,4.139,0,0,0,.653-3.6,3.362,3.362,0,0,0-2.536-2.625,2.773,2.773,0,0,0-3.029,1A3.948,3.948,0,0,0,192.388,372.154Z" transform="translate(-174.588 -299.832)"/><path class="c" d="M220.109,372.335a4.676,4.676,0,0,1-1.228,3.312,3.908,3.908,0,0,1-6.135-.3,5.368,5.368,0,0,1-.27-5.89,3.821,3.821,0,0,1,3.973-1.822,4.465,4.465,0,0,1,3.52,3.445C220.046,371.5,220.064,371.917,220.109,372.335Zm-.937-.129a3.487,3.487,0,0,0-.123-1.066,3.444,3.444,0,0,0-2.484-2.543,2.771,2.771,0,0,0-2.932.823,4.315,4.315,0,0,0,.426,5.981,2.9,2.9,0,0,0,2.419.635A3.564,3.564,0,0,0,219.172,372.206Z" transform="translate(-185.161 -299.822)"/><path class="d" d="M181.423,515.31c-.861,0-1.722-.02-2.582.009-.387.013-.528-.114-.468-.483.054-.333-.194-.832.467-.829,1.071,0,2.142,0,3.213,0h1.033c1.077,0,1.08,0,1.063-1.1,0-.267-.029-.534-.045-.8a1.926,1.926,0,0,0-1.419-1.816,22.178,22.178,0,0,0-2.67-.644c-.4-.086-.7-.22-.612-.766s.313-.665.837-.527a19.847,19.847,0,0,1,3.03.832,3.3,3.3,0,0,1,2.171,3.314c-.007.478.013.958-.027,1.433-.085.994-.467,1.35-1.465,1.373-.841.019-1.683,0-2.525,0Z" transform="translate(-167.769 -373.173)"/><path class="d" d="M251.3,513.885c0,1.185.008,2.371,0,3.557-.016,1.914-.911,2.672-2.806,2.394a4.572,4.572,0,0,1-.5-.109.77.77,0,0,1-.475-1.26.169.169,0,0,1,.239-.062c.106.043.213.084.322.119,1.314.419,1.848.04,1.849-1.32q0-3.385,0-6.77a.829.829,0,0,1,1.228-.828c.249.092.14.29.141.435C251.306,511.323,251.3,512.6,251.3,513.885Z" transform="translate(-203.724 -373.813)"/><path class="d" d="M296.165,546.085q0-2.3,0-4.593a.84.84,0,0,1,1.229-.841c.265.1.152.323.153.491.008,2.028.005,4.057.005,6.086q0,1.723,0,3.445c0,.241-.029.48-.3.552a1.6,1.6,0,0,1-1.009-.007c-.151-.06-.072-.279-.073-.425C296.163,549.224,296.165,547.654,296.165,546.085Z" transform="translate(-229.168 -389.996)"/><path class="d" d="M286.984,505.974q0,2.323,0,4.646a.87.87,0,0,1-1.282.743c-.153-.088-.1-.234-.1-.357q0-4.789,0-9.579c0-.266.038-.532.32-.6a1.6,1.6,0,0,1,1.005.017c.135.056.057.282.058.429Q286.987,503.622,286.984,505.974Z" transform="translate(-223.666 -369.241)"/><path class="d" d="M264.363,527.78c-.363,0-.727.009-1.09,0-.157-.006-.383.09-.443-.139-.052-.2-.1-.471.1-.587.27-.16.2-.346.175-.574a1.324,1.324,0,0,1,1.171-1.608,3.441,3.441,0,0,1,1.368.034c.229.053.454.053.379.407-.063.295-.127.506-.5.457a5.99,5.99,0,0,0-.972-.028.553.553,0,0,0-.6.56c-.013.382.269.542.585.587a4.968,4.968,0,0,0,.973.025c.386-.02.487.164.5.518.015.411-.247.35-.491.35Z" transform="translate(-211.777 -381.786)"/><path class="d" d="M235.651,506.018a.877.877,0,0,1-.869-.881.9.9,0,0,1,.891-.867.882.882,0,0,1,.864.889A.862.862,0,0,1,235.651,506.018Z" transform="translate(-197.18 -371.075)"/><path class="d" d="M340.7,565.931a.882.882,0,0,1-.871.883.9.9,0,0,1-.883-.877.875.875,0,0,1,.877-.873A.858.858,0,0,1,340.7,565.931Z" transform="translate(-251.477 -402.765)"/><path class="d" d="M316.965,542.664a.877.877,0,1,1-1.755-.013.877.877,0,0,1,1.755.013Z" transform="translate(-239.104 -390.632)"/><path class="d" d="M318.481,504.048a.854.854,0,0,1-.87-.87.879.879,0,0,1,1.757.014A.86.86,0,0,1,318.481,504.048Z" transform="translate(-240.356 -370.053)"/><path class="d" d="M233.376,499.829a.864.864,0,0,1,.857.886.889.889,0,0,1-.9.855.859.859,0,0,1-.843-.9A.828.828,0,0,1,233.376,499.829Z" transform="translate(-195.985 -368.76)"/><path class="d" d="M270.667,564.967a.865.865,0,0,1,.854.89.831.831,0,0,1-.875.856.861.861,0,0,1-.866-.878A.885.885,0,0,1,270.667,564.967Z" transform="translate(-215.423 -402.715)"/><path class="d" d="M219.6,565.931a.892.892,0,0,1-.875.882.864.864,0,0,1-.866-.878.837.837,0,0,1,.861-.873A.871.871,0,0,1,219.6,565.931Z" transform="translate(-188.361 -402.764)"/><path class="d" d="M224.232,565.953a.867.867,0,0,1-.884.861.89.89,0,0,1-.855-.9.865.865,0,0,1,.895-.85A.839.839,0,0,1,224.232,565.953Z" transform="translate(-190.774 -402.765)"/><path class="d" d="M231.035,506.02a.871.871,0,0,1-.864-.885.885.885,0,0,1,.886-.868.866.866,0,0,1,.854.891A.847.847,0,0,1,231.035,506.02Z" transform="translate(-194.777 -371.074)"/><path class="d" d="M193.106,545.882a.878.878,0,1,1-.855-.887A.863.863,0,0,1,193.106,545.882Z" transform="translate(-174.54 -392.304)"/><path class="d" d="M312.3,542.661a.867.867,0,0,1-.871.875.879.879,0,0,1-.865-.887.859.859,0,0,1,.878-.865A.842.842,0,0,1,312.3,542.661Z" transform="translate(-236.68 -390.63)"/><path class="d" d="M395.648,543.911a.859.859,0,0,1-.851.892.874.874,0,0,1-.9-.847.862.862,0,0,1,.857-.887A.847.847,0,0,1,395.648,543.911Z" transform="translate(-280.12 -391.3)"/><path class="d" d="M336.048,565.924a.867.867,0,1,1-1.733.013.867.867,0,1,1,1.733-.013Z" transform="translate(-249.063 -402.762)"/><path class="d" d="M188.448,545.868a.868.868,0,1,1-.858-.875A.847.847,0,0,1,188.448,545.868Z" transform="translate(-172.124 -392.303)"/><path class="d" d="M323.146,502.307a.872.872,0,0,1,.887.86.841.841,0,0,1-.854.879.828.828,0,0,1-.881-.845A.861.861,0,0,1,323.146,502.307Z" transform="translate(-242.799 -370.052)"/><path class="d" d="M400.332,543.932a.865.865,0,0,1-.873.871.843.843,0,0,1-.866-.868.835.835,0,0,1,.862-.867A.86.86,0,0,1,400.332,543.932Z" transform="translate(-282.569 -391.3)"/><path class="d" d="M278.041,262.642c-.018.437-.22.713-.7.714a.714.714,0,0,1-.023-1.428C277.8,261.918,278.015,262.178,278.041,262.642Z" transform="translate(-218.999 -244.752)"/><path class="d" d="M273.535,261.926a.714.714,0,1,1-.705.723A.629.629,0,0,1,273.535,261.926Z" transform="translate(-217.013 -244.751)"/><path class="d" d="M330.868,262.653a.638.638,0,0,1-.7.7.629.629,0,0,1-.7-.711.62.62,0,0,1,.69-.715C330.623,261.926,330.862,262.169,330.868,262.653Z" transform="translate(-246.537 -244.753)"/><path class="d" d="M264.689,240.423a.616.616,0,0,1-.711-.69c0-.463.2-.717.677-.725a.619.619,0,0,1,.712.692C265.374,240.159,265.169,240.42,264.689,240.423Z" transform="translate(-212.399 -232.804)"/><path class="d" d="M260.828,239c.491,0,.72.233.721.705s-.21.712-.686.714a.71.71,0,0,1-.035-1.419Z" transform="translate(-210.408 -232.801)"/></g></svg>