<svg xmlns="http://www.w3.org/2000/svg" width="165.99" height="228.029" viewBox="0 0 165.99 228.029"><defs><style>.a{fill:#be894b;}.b{fill:#dfad73;}.c{fill:#fff;}</style></defs><g transform="translate(-1653.768 -64.879)"><g transform="translate(1653.658 64.879)"><path class="a" d="M170.146,226.05h149.9a.713.713,0,0,1,.021.111c-.21.009-.421.028-.63.028q-74.163,0-148.326,0c-.327,0-.654-.018-.981-.028A.649.649,0,0,1,170.146,226.05Z" transform="translate(-161.989 -226.05)"/><path class="b" d="M156.43,234.264a8.681,8.681,0,0,1,8.023-8.025c.327.009.654.027.981.027q74.163,0,148.326,0c.21,0,.42-.018.63-.028a8.681,8.681,0,0,1,8.022,8.025c-.009.468-.025.936-.025,1.4q0,96.38,0,192.76c0,.21.019.42.029.63a8.719,8.719,0,0,1-8.58,8.128c-.187,0-.375,0-.562,0q-73.852,0-147.705,0a8.742,8.742,0,0,1-8.121-4.594,7.641,7.641,0,0,1-1.022-3.542c.01-.421.029-.842.029-1.263q0-96.486,0-192.972C156.457,234.637,156.439,234.451,156.43,234.264Zm165.123,97.469V235.767c0-.351,0-.7-.005-1.055a7.334,7.334,0,0,0-1.078-3.733,7.746,7.746,0,0,0-7.026-3.88q-74.031,0-148.061,0c-.164,0-.328,0-.492,0a7.248,7.248,0,0,0-3.611,1.011,7.862,7.862,0,0,0-4,7.245q.014,71.571.006,143.14,0,24.712,0,49.424a9.313,9.313,0,0,0,.243,2.437c1,3.736,4.049,5.949,8.256,5.949q73.644.005,147.288,0a9.692,9.692,0,0,0,2.78-.326,7.849,7.849,0,0,0,5.7-7.862Q321.555,379.926,321.552,331.733Z" transform="translate(-156.316 -226.128)"/><path class="b" d="M263.14,599.009a5.375,5.375,0,0,0-.524,1.776,2.445,2.445,0,0,0,1.019,2.332,2.617,2.617,0,0,0,2.68.142,2,2,0,0,0,1.175-1.992c-.009-2.226,0-4.452,0-6.678a1.2,1.2,0,0,1,1.009-1.1c.384,0,.2.316.2.47.016,1.734.008,3.469.012,5.2,0,.6-.141,1.321.56,1.606a3.3,3.3,0,0,0,2.591-.02c.429-.186.491-.657.5-1.092.008-.633,0-1.266,0-1.9,0-1.06,0-1.06,1.154-1.443,0,1.042-.006,2.064,0,3.086.009,1.2.362,1.566,1.551,1.554a15.216,15.216,0,0,0,3.222-.145,5.622,5.622,0,0,0,2.413-1.226c.376-.314.356-.554.108-.93-1.144-1.737-2.64-2.01-4.275-.754l-.3.227a1.169,1.169,0,0,1,.534-1.5,2.986,2.986,0,0,1,3.425-.078,5.99,5.99,0,0,1,1.812,1.928,1.017,1.017,0,0,1-.144,1.5c-.462.389-.263.568.187.73a8.081,8.081,0,0,0,3.408.205c.567-.043.8-.53.84-1.063.029-.373.009-.749.009-1.124,0-1.067,0-1.067,1.154-1.512v2.164c0,.577.016,1.2.637,1.438a2.531,2.531,0,0,0,2.17-.081,1.071,1.071,0,0,0,.459-.977c.021-.491.01-.984.01-1.476,0-1.093,0-1.093,1.172-1.531,0,.951-.005,1.875,0,2.8.008,1.043.361,1.4,1.381,1.419,1.434.024,1.833-.263,1.868-1.379.02-.609,0-1.219,0-1.828,0-1.063,0-1.063,1.154-1.444,0,1.044,0,2.067,0,3.089.005,1.152.41,1.55,1.572,1.561,2.212.022,2.309-.073,2.309-2.262a5.452,5.452,0,0,0-.008-.913c-.15-.878.308-1.275,1.162-1.478,0,1.012,0,2.005,0,3,0,.591-.035,1.269.641,1.5a2.771,2.771,0,0,0,2.434-.13c.442-.277.458-.79.459-1.265,0-1.594.054-3.19-.021-4.78-.035-.755.463-.878.925-1.11.246-.124.27.066.268.245-.016,2.108-.006,4.217-.064,6.324a1.786,1.786,0,0,1-1.132,1.659,4.2,4.2,0,0,1-3.78-.134c-.187-.108-.278-.189-.533-.061a4.365,4.365,0,0,1-4.571-.094c-.223-.142-.294-.072-.455.049a3.58,3.58,0,0,1-3.938.036c-.252-.195-.35-.14-.568.027a3.643,3.643,0,0,1-3.777.033c-.319-.249-.492-.234-.733.04a.66.66,0,0,1-.351.224c-1.783.26-3.588.6-5.16-.679a.429.429,0,0,0-.6-.061c-1.945,1.188-4.118,1.1-6.212.823a5.164,5.164,0,0,0-2.524.027,4.22,4.22,0,0,1-2.631-.076c-.361-.124-.391-.019-.484.292a3.66,3.66,0,0,1-4.9,2.206,3.564,3.564,0,0,1-1.9-4.627C262.006,599.1,262.529,599.085,263.14,599.009Z" transform="translate(-199.827 -378.204)"/><path class="b" d="M351.588,608.034c0-1.065-.037-2.1.009-3.125a2.237,2.237,0,0,1,2.105-2.187,4.247,4.247,0,0,1-.276-3.039,2.464,2.464,0,0,1,2.783-1.831,2.2,2.2,0,0,1,1.966,2.406c.007.468-.011.938.018,1.405a1.048,1.048,0,0,0,.99,1.082,5.835,5.835,0,0,0,.7.018c.669,0,1.336,0,2.1,0a3.706,3.706,0,0,1-.4-3.057,2.426,2.426,0,0,1,2.689-1.863,2.118,2.118,0,0,1,2.035,2.186,7.453,7.453,0,0,1-.03,1.891,2.074,2.074,0,0,1-2.124,1.937c-1.663.033-3.327,0-4.99.011-.613,0-1.108-.592-1.608-.515s-.989.5-1.568.509c-.656.015-1.312-.01-1.968.009a1.147,1.147,0,0,0-1.266,1.268,6.264,6.264,0,0,0,.009,1.263C352.906,607.306,352.53,607.808,351.588,608.034Zm5.4-7.127h0c0-.3.023-.608-.005-.909a1.02,1.02,0,0,0-.852-1.048,1.2,1.2,0,0,0-1.387.573,2.724,2.724,0,0,0,.009,2.68,1.172,1.172,0,0,0,1.4.528.972.972,0,0,0,.83-.985C357.011,601.468,356.993,601.187,356.993,600.907Zm8.193-.013c-.021-.309-.034-.565-.056-.821-.05-.588-.262-1.046-.926-1.134a1.236,1.236,0,0,0-1.418.782,2.732,2.732,0,0,0,.1,2.439,1.171,1.171,0,0,0,1.385.572.982.982,0,0,0,.84-.981C365.139,601.448,365.165,601.146,365.186,600.894Z" transform="translate(-237.127 -380.005)"/><path class="b" d="M247.435,596.39c0,.75.043,1.5-.013,2.248-.043.56.17.7.668.628.137-.021.283.013.421-.006.4-.055.466.152.455.493-.011.324.019.633-.455.565a.924.924,0,0,0-.141,0c-.933.016-.978.019-.918.985.041.653-.168.846-.8.791-.371-.032-.46-.136-.468-.493-.028-1.283-.043-1.283-1.341-1.283h-1.687c-.778,0-1.023-.408-.655-1.141a10,10,0,0,1,.6-.948c.922-1.41,1.882-2.8,2.751-4.239.383-.637.9-.458,1.406-.444.27.008.171.29.173.456C247.441,594.8,247.435,595.594,247.435,596.39Zm-3.835,2.873c.83,0,1.528,0,2.226,0,.2,0,.369-.008.367-.284-.006-1.157,0-2.314,0-3.47l-.141-.038Z" transform="translate(-191.89 -378.216)"/><path class="b" d="M223.16,595.689c0-.561.016-1.124-.006-1.685-.013-.354.09-.5.47-.49,1.17.021,2.341.028,3.511,0,.49-.012.432.274.444.585.013.328-.035.529-.446.512-.7-.03-1.406.026-2.105-.019-.513-.033-.649.155-.6.632s-.14,1.035.073,1.374.819.074,1.252.127a2.486,2.486,0,0,1,2.389,2.465,2.809,2.809,0,0,1-2.357,3.013,3.69,3.69,0,0,1-2.721-.676c-.279-.2-.288-.357-.1-.62s.285-.451.639-.2a2.432,2.432,0,0,0,1.462.411,1.592,1.592,0,0,0,1.786-1.634,1.532,1.532,0,0,0-1.634-1.759,4.052,4.052,0,0,0-1.325.048c-.712.2-.773-.118-.73-.681C223.188,596.627,223.16,596.157,223.16,595.689Z" transform="translate(-183.814 -378.217)"/><path class="b" d="M215.293,597.388a2.14,2.14,0,0,1,1.446,2.3,2.423,2.423,0,0,1-1.832,2.3,3.652,3.652,0,0,1-3.2-.565c-.227-.153-.347-.305-.121-.555.17-.187.237-.534.626-.256a2.567,2.567,0,0,0,1.6.415,1.472,1.472,0,0,0,1.6-1.491c.028-.953-.474-1.475-1.505-1.549a7.789,7.789,0,0,0-.843-.005c-.371.013-.659.037-.652-.521.006-.512.211-.576.62-.542a5.378,5.378,0,0,0,.842,0,1.275,1.275,0,0,0-.053-2.549,2.357,2.357,0,0,0-1.464.395c-.27.177-.428.189-.6-.12-.154-.271-.252-.449.064-.7a3.476,3.476,0,0,1,3.4-.359C216.73,594.383,216.789,596.129,215.293,597.388Z" transform="translate(-179.107 -378.127)"/><path class="b" d="M234.252,602.047c.95-2.19,1.875-4.327,2.805-6.462.429-.985.434-.983-.659-.983-.655,0-1.311-.028-1.964.009-.487.028-.442-.259-.446-.575s0-.531.427-.523c1.309.025,2.618.018,3.928,0,.335,0,.457.1.441.438a2.943,2.943,0,0,1-.178,1.093c-.883,2.007-1.745,4.023-2.617,6.035C235.542,602.116,235.54,602.115,234.252,602.047Z" transform="translate(-188.435 -378.217)"/><path class="b" d="M380.865,601.368a19.8,19.8,0,0,1-.1,2.969,2.752,2.752,0,0,1-3.7,2.174.694.694,0,0,1-.571-.856c.028-.306.1-.313.38-.236,1.887.52,2.8-.186,2.818-2.158.011-1.285,0-2.57,0-3.856a1.2,1.2,0,0,1,.962-1.066c.3-.024.2.2.2.328C380.87,599.509,380.865,600.35,380.865,601.368Z" transform="translate(-247.443 -380.215)"/><path class="b" d="M342.8,597.715c0,1.288-.025,2.577.012,3.864.015.5-.224.51-.594.505-.354-.005-.609.016-.6-.494.028-2.365.011-4.731.013-7.1a1.194,1.194,0,0,1,.973-.986c.33,0,.189.268.19.413C342.809,595.185,342.8,596.45,342.8,597.715Z" transform="translate(-233.005 -378.214)"/><path class="b" d="M328.854,594.575c-.4-.016-.654-.192-.651-.636s.207-.7.676-.69a.663.663,0,0,1-.025,1.325Z" transform="translate(-227.449 -378.108)"/><path class="b" d="M370.807,594.577a.562.562,0,0,1-.6-.619c0-.445.182-.71.657-.71a.586.586,0,0,1,.646.655C371.508,594.3,371.314,594.566,370.807,594.577Z" transform="translate(-244.841 -378.107)"/><path class="b" d="M292.08,611.244c-.006.24-.165.5-.614.514-.48.017-.683-.243-.687-.681a.579.579,0,0,1,.651-.647C291.838,610.436,292.086,610.639,292.08,611.244Z" transform="translate(-211.952 -385.222)"/><path class="b" d="M326.546,593.845c-.009.532-.247.742-.663.731a.588.588,0,0,1-.64-.661.6.6,0,0,1,.7-.664A.562.562,0,0,1,326.546,593.845Z" transform="translate(-226.223 -378.107)"/><path class="b" d="M373.114,593.856a.574.574,0,0,1,.638-.608.6.6,0,0,1,.666.706.582.582,0,0,1-.675.622C373.318,594.565,373.116,594.322,373.114,593.856Z" transform="translate(-246.047 -378.107)"/><path class="b" d="M278.961,611.164a.551.551,0,0,1-.616.594c-.416.007-.654-.158-.674-.6-.021-.464.193-.713.644-.719C278.73,610.43,278.954,610.664,278.961,611.164Z" transform="translate(-206.523 -385.224)"/><path class="b" d="M281.855,611.028c.016.443-.122.714-.579.73a.6.6,0,0,1-.708-.659.59.59,0,0,1,.639-.665C281.608,610.43,281.877,610.611,281.855,611.028Z" transform="translate(-207.723 -385.224)"/><path class="b" d="M309.633,325.124a8.79,8.79,0,0,0,2.275,3.825,10.33,10.33,0,0,0,5.423,2.281,23.679,23.679,0,0,0,10.145-.737,6.735,6.735,0,0,0,4.721-4.255l.356-.879c.211-.016.215.135.247.228,1.024,3.051,3.237,4.666,6.29,5.394a22.924,22.924,0,0,0,11.781-.622,6.707,6.707,0,0,0,4.525-4.637,15.735,15.735,0,0,0,.883-5.167q.018-11.881.025-23.762c0-.471-.153-.592-.6-.589-2.555.017-5.109.028-7.663-.006-.581-.008-.684.188-.683.715.016,6.468.009,12.936.012,19.4a11.689,11.689,0,0,1-.378,3.126,5.138,5.138,0,0,1-4.2,3.951,10.935,10.935,0,0,1-4.875-.079,5.492,5.492,0,0,1-4.18-4.989,17.689,17.689,0,0,1-.138-2.382c0-6.327-.009-12.654.018-18.982,0-.633-.168-.774-.777-.765q-3.55.055-7.1,0c-.612-.009-.784.142-.782.77q.037,9.631.012,19.263a12.077,12.077,0,0,1-.335,2.992,5.274,5.274,0,0,1-4.337,4.168,10.932,10.932,0,0,1-4.326.047,5.683,5.683,0,0,1-4.876-5.683c-.144-2.365-.07-4.732-.077-7.1-.013-4.546-.02-9.093.013-13.639.005-.7-.207-.848-.867-.837q-3.619.062-7.241.007c-.629-.009-.821.141-.82.8.016,6.819,0,13.638-.015,20.457a22.185,22.185,0,0,1-.29,3.708c-.19,1.1-.737,1.589-1.589,1.513-.241-.022-.294-.07-.259-.333.741-5.594.565-11.221.593-16.84q.026-5.1-.009-10.193c0-.533.148-.663.668-.66q5.308.034,10.616,0c.6,0,.735.167.733.743q-.029,10.44-.009,20.88a11.99,11.99,0,0,0,.237,2.512,3.555,3.555,0,0,0,3.179,3.1,14.57,14.57,0,0,0,4.338-.029,3.29,3.29,0,0,0,2.763-2.559,13.035,13.035,0,0,0,.371-3.692q.027-10.088-.006-20.177c0-.623.16-.78.778-.774q5.132.047,10.264,0c.567,0,.692.166.69.707-.018,7.031-.009,14.061-.014,21.091a9.715,9.715,0,0,0,.242,2.228,3.848,3.848,0,0,0,3.314,3.188,12.213,12.213,0,0,0,4.057.019c1.8-.3,2.671-1.367,2.943-3.347a18.992,18.992,0,0,0,.141-2.593c0-6.843.008-13.686-.017-20.529,0-.635.177-.77.782-.765q5.307.047,10.615.008c.532,0,.711.111.71.685-.021,8.3-.012,16.591-.017,24.887a19.5,19.5,0,0,1-.7,5.415,8.505,8.505,0,0,1-5.938,6.22,23.921,23.921,0,0,1-13.7.22,10.04,10.04,0,0,1-4.51-2.747c-.3-.313-.46-.422-.766.02a5.687,5.687,0,0,1-2.665,2,22.152,22.152,0,0,1-14.087,1.152,11.586,11.586,0,0,1-5.568-3.252c-.3-.313-.436-.277-.685.032-1.826,2.26-4.31,3.155-7.1,3.511a18.13,18.13,0,0,1-11.841-2.874c-.309-.184-.645-.533-.7.223-.319,4.5-3.074,6.934-7.074,8.285a21.586,21.586,0,0,1-7.116,1.079c-.528,0-.67.14-.663.665.031,2.038.026,4.077,0,6.116-.005.451.139.616.581.639,4.125.223,8.151-.116,11.852-2.167.5-.277.731-.2.947.267a2.223,2.223,0,0,0,.264.414c.271.347.185.544-.2.749a20.114,20.114,0,0,1-6.314,2.046,29.422,29.422,0,0,1-8.192,0c-.445-.054-.58-.224-.578-.668q.026-4.57,0-9.139c0-.529.206-.6.659-.6a25.518,25.518,0,0,0,8.238-1.146c2.908-1.025,5.063-2.811,5.766-5.973a7.524,7.524,0,0,0,.216-1.6q.03-16.17.039-32.339c0-.41-.092-.574-.541-.571q-3.9.029-7.8,0c-.5,0-.575.19-.565.617.025,1.031.009,2.062.008,3.093-.008,6.749.006,13.5-.042,20.247a28.412,28.412,0,0,1-.38,5.6c-.22,1.06-.7,1.492-1.563,1.5-.24,0-.4,0-.339-.341a64.083,64.083,0,0,0,.548-10.23q.043-10.614,0-21.227c0-.634.149-.824.806-.819q5.448.051,10.9,0c.589,0,.736.167.735.746-.017,10.475-.008,20.951-.026,31.426a1.254,1.254,0,0,0,.675,1.233,18.392,18.392,0,0,0,8.479,3.114,13.8,13.8,0,0,0,6.211-.837,7.312,7.312,0,0,0,4.106-4.294Z" transform="translate(-204.653 -254.452)"/><path class="b" d="M197.949,321.477a25.048,25.048,0,0,1-1.917-2.276,14.333,14.333,0,0,1,.449-17.223,17.431,17.431,0,0,1,13.37-7.115,21.9,21.9,0,0,1,13.141,2.954,15.2,15.2,0,0,1,7.777,12.307,13.456,13.456,0,0,1-2.7,10.034,7.139,7.139,0,0,1-5.93,2.814c-3.445-.032-6.89.025-10.334-.016a10.336,10.336,0,0,1-7.964-3.564A8.8,8.8,0,0,1,205.763,306c4.446-2.908,9-2.712,13.506-.031a12.285,12.285,0,0,1,3.389,2.922,1.689,1.689,0,0,1-.159,2.573,13.422,13.422,0,0,0-5.664-4.8,9.952,9.952,0,0,0-10.216.854c-4.4,2.985-4.373,8.852-.009,12.048a8.714,8.714,0,0,0,5.3,1.768c3.3-.012,6.61-.079,9.911.023a5.6,5.6,0,0,0,5.073-2.7,11.956,11.956,0,0,0,1.951-8.642c-.942-6.8-5.285-11.329-12.284-12.872-3.678-.81-7.4-1.082-11.01.272-4.6,1.726-8.123,4.656-9.651,9.5a14.158,14.158,0,0,0,4.625,15.25c.266.217.531.436.945.777-4.409.07-8.521-.137-11.461-3.8a10.714,10.714,0,0,1-2.134-6.492,29.23,29.23,0,0,1,1.472-9.6c.22-.739.453-1.476.713-2.2.139-.39.119-.623-.311-.821-1.871-.861-3.735-1.737-5.58-2.651-.521-.259-.673-.066-.855.376a38.411,38.411,0,0,0-2.726,10.35,33.609,33.609,0,0,0,.813,12.47,12.836,12.836,0,0,0,5.069,7.2,18.737,18.737,0,0,0,11.454,3.8c8.811-.028,17.621-.008,26.432-.008a.9.9,0,0,1,.92,1.259.273.273,0,0,1-.3.227c-.164.005-.328,0-.492,0-9.209,0-18.419.067-27.627-.027a19.13,19.13,0,0,1-12.813-4.982,15.926,15.926,0,0,1-4.889-9.425,38.908,38.908,0,0,1,1.326-17.967,25.589,25.589,0,0,1,2.088-5.2c.244-.448.48-.513.945-.318,2.5,1.055,4.9,2.345,7.374,3.454.55.245,1.349.305,1.575.809s-.316,1.121-.521,1.685A30.58,30.58,0,0,0,189.633,312a9.4,9.4,0,0,0,2.7,7.078A9.514,9.514,0,0,0,197.949,321.477Z" transform="translate(-165.511 -254.516)"/><path class="b" d="M279.387,412.874c-.245.313-.379.466-.492.632-2.123,3.125-5.23,4.473-8.846,4.919a27.967,27.967,0,0,1-3.438.132c-4.945,0-9.889.009-14.834-.011-.541,0-.718.125-.711.693q.049,3.515,0,7.03c-.009.6.172.734.748.732q10.334-.03,20.669-.005c.254,0,.658-.173.742.17a3.067,3.067,0,0,1-.009,1.25c-.045.244-.362.139-.558.14-1.71.006-3.421,0-5.132,0-5.741,0-11.483-.006-17.224.019-.6,0-.793-.128-.787-.766q.053-4.991,0-9.982c0-.618.125-.828.8-.825,6.046.029,12.094-.053,18.138.043,3.848.061,6.678-1.674,8.965-4.544a9.994,9.994,0,0,0-4.663-15.446,11.812,11.812,0,0,0-4.45-.862c-4.054.012-8.108.021-12.162-.013-.667-.005-.809.2-.8.824.036,2.226.04,4.453,0,6.679-.013.661.141.876.837.866q4.814-.072,9.628.1a14.486,14.486,0,0,1,2.578.286,1.716,1.716,0,0,1,1.04.54,1.11,1.11,0,0,1,.2,1.185c-.139.27-.553.05-.844.025-1.352-.114-2.7-.263-4.057-.337-3.394-.186-6.792-.186-10.189-.172-.586,0-.745-.159-.74-.743.028-3.351.022-6.7,0-10.053,0-.51.072-.733.675-.729,4.523.032,9.046-.024,13.568.042a13.553,13.553,0,0,1,8.6,2.785,10.95,10.95,0,0,1,4.438,8.839c-.012,3.586-.021,7.171.013,10.757a15.227,15.227,0,0,0,.651,4.5,6.883,6.883,0,0,0,6.08,5.175,23.712,23.712,0,0,0,6.723-.052c3.122-.5,5.207-2.67,5.923-5.984a20.412,20.412,0,0,0,.42-4.324c0-7.874-.01-15.748.016-23.622,0-.67-.205-.8-.821-.792-2.225.035-4.452.014-6.678.014-.915,0-.915,0-.916.886q-.017,9.21-.033,18.42a28.577,28.577,0,0,1-.288,4.131c-.182,1.231-.653,1.755-1.528,1.766-.321,0-.467-.047-.412-.427a88.881,88.881,0,0,0,.553-12.411q.032-6.609-.007-13.217c0-.541.125-.714.693-.71q5.237.04,10.475,0c.545,0,.649.166.648.674-.016,8.741-.008,17.483-.02,26.224a16.325,16.325,0,0,1-.833,5.318,7.819,7.819,0,0,1-6.39,5.641,25.2,25.2,0,0,1-9.013-.053c-3.527-.7-5.482-3.1-6.376-6.468a17.657,17.657,0,0,1-.566-4.306C279.371,416,279.387,414.543,279.387,412.874Z" transform="translate(-194.864 -294.115)"/><path class="b" d="M368.864,422.613c-.06,1.172-.04,2.146-.184,3.109-.535,3.578-2,6.528-5.458,8.131a14.466,14.466,0,0,1-4.9,1.149c-1.166.1-2.334.2-3.5.254-.406.02-.505.168-.5.549.019,2.085.027,4.172.011,6.257,0,.446.141.633.582.653,4.005.179,7.92-.124,11.489-2.2.456-.265.636-.118.868.265.565.932.582.926-.367,1.407a21.492,21.492,0,0,1-11.68,2.014c-.629-.049-1.255-.156-1.885-.195-.4-.025-.567-.15-.565-.588q.027-4.64,0-9.28c0-.439.134-.548.558-.554a37.266,37.266,0,0,0,6.513-.392c4.763-.905,6.893-3.662,7.272-8.317.146-1.793.066-3.607.067-5.411,0-8.882-.006-17.764.019-26.646,0-.708-.169-.907-.888-.892-2.39.049-4.781.043-7.171,0-.637-.011-.769.181-.768.787q.019,12.163-.023,24.325a24.47,24.47,0,0,1-.374,5.316c-.208.92-.746,1.333-1.507,1.264-.244-.022-.326-.092-.289-.34a92.422,92.422,0,0,0,.567-13.394q.041-9.35,0-18.7c0-.619.153-.783.776-.777q5.237.047,10.475,0c.676-.007.8.213.794.828q-.028,12.3-.013,24.607c0,5.012,2.367,8.449,7.061,10.3a12.482,12.482,0,0,0,7.8.337c2.747-.69,4.258-2.654,5-5.291a16.23,16.23,0,0,0,.547-4.377c.016-8.062,0-16.123.021-24.185,0-.526-.135-.673-.664-.666-2.343.029-4.687.033-7.03,0-.594-.009-.734.166-.732.744.015,5.929,0,11.858-.007,17.787a34.668,34.668,0,0,1-.288,4.835c-.186,1.317-.642,1.827-1.6,1.866-.328.014-.406-.071-.367-.388.876-7.095.471-14.224.567-21.34.02-1.5.011-3,0-4.5,0-.364.055-.549.489-.547q5.413.023,10.827,0c.428,0,.494.173.493.543-.012,8.952,0,17.9-.032,26.856a15.165,15.165,0,0,1-.619,4.155c-1.165,4.036-3.889,6.182-8.059,6.563a15.115,15.115,0,0,1-11.531-3.809,8.324,8.324,0,0,1-.924-.959C369.464,423.457,369.236,423.113,368.864,422.613Z" transform="translate(-237.624 -294.112)"/><path class="b" d="M207.551,406.01a13.235,13.235,0,0,0-7.778-5.5,9.693,9.693,0,0,0-8.869,2.156,7.375,7.375,0,0,0-.939,10.145,9.833,9.833,0,0,0,6.161,4.106,6.065,6.065,0,0,0,.978.072c3.258,0,6.516-.054,9.772.019a5.6,5.6,0,0,0,4.941-2.564,12.387,12.387,0,0,0,2.153-7.632c-.071-6.342-4.358-11.791-11.04-13.692a20.6,20.6,0,0,0-10.747-.477c-5.4,1.334-9.2,4.5-11.047,9.8-2.584,7.392-1.263,14.005,4.3,19.577a16.658,16.658,0,0,0,12.1,4.961c5.062.025,10.123,0,15.185.013.256,0,.635-.162.75.156a2.234,2.234,0,0,1,.119,1.245c-.062.266-.357.152-.549.152-1.547.009-3.094.005-4.64.005-3.749,0-7.5-.022-11.248,0-7.243.052-12.618-3.2-16.3-9.308a19.939,19.939,0,0,1,1.281-22.322,16.209,16.209,0,0,1,10.606-6.169,22,22,0,0,1,14.69,2.355c3.668,2.04,6.482,4.871,7.655,9.018a16.024,16.024,0,0,1-.032,10.212,10.483,10.483,0,0,1-3.2,4.7,6.685,6.685,0,0,1-4.344,1.533c-3.28-.024-6.563-.076-9.841.01-4.325.114-7.389-1.956-9.572-5.452a9.051,9.051,0,0,1,.5-10.586,10.876,10.876,0,0,1,7.513-3.953c4.6-.5,8.308,1.328,11.389,4.619A1.774,1.774,0,0,1,207.551,406.01Z" transform="translate(-165.264 -294.108)"/><path class="c" d="M276.357,251.147a15.265,15.265,0,0,1-2.127-2.467,1.225,1.225,0,0,1,.095-1.816c2.4-2.834,5.919-2.709,8.118.287a1.062,1.062,0,0,1,.011,1.354,14.81,14.81,0,0,1-2.233,2.607c.094.237.286.124.421.125,1.429.009,2.859.018,4.288,0,1.233-.015,1.741-.519,1.81-1.744a11.081,11.081,0,0,1,.131-1.957,3.281,3.281,0,0,1,6.508.277c.085.649.076,1.308.127,1.961a1.349,1.349,0,0,0,1.35,1.429,17.277,17.277,0,0,0,5.034-.245,6.632,6.632,0,0,0,3.079-1.741c.239-.236.308-.421.1-.715a8.487,8.487,0,0,0-.94-1.222,3.119,3.119,0,0,0-4.261-.442c-.341.227-.656.493-1,.753a1.631,1.631,0,0,1,.793-2.043,3.83,3.83,0,0,1,4.358-.137,7.174,7.174,0,0,1,2.639,2.945,1.171,1.171,0,0,1-.21,1.413,8.483,8.483,0,0,1-6.257,2.883c-.958.041-1.921,0-2.881.019a3.285,3.285,0,0,1-2.361-.7c-.183-.161-.27-.127-.448.03a3.3,3.3,0,0,1-4.813,0c-.195-.166-.282-.151-.454,0a3.214,3.214,0,0,1-2.229.678c-1.546-.01-3.1.1-4.637-.032a26.006,26.006,0,0,0-4.143,0c-1.654.124-3.324.026-4.988.028a2.952,2.952,0,0,1-2.02-.666c-.224-.195-.357-.19-.581,0a2.936,2.936,0,0,1-2.022.662c-.585,0-1.172.012-1.757-.011a2.609,2.609,0,0,1-2.091-.977c-.213-.279-.328-.247-.6-.073a3.109,3.109,0,0,1-4.818-1.9,3.682,3.682,0,0,1,2.25-4.676,3.24,3.24,0,0,1,2.4.315c-.052-1.089.938-.985,1.586-1.547v2.867c0,.937-.013,1.875,0,2.812.021,1.213.556,1.739,1.777,1.77.351.009.7.009,1.054,0,1.183-.038,1.7-.533,1.749-1.731a19.412,19.412,0,0,0-.006-2.668,1.257,1.257,0,0,1,.953-1.515,5.8,5.8,0,0,0,.589-.282c0,1.407,0,2.73,0,4.053,0,1.728.42,2.146,2.165,2.147q2.179,0,4.358-.009C276.247,251.234,276.264,251.212,276.357,251.147Zm1.874-4.954a3.66,3.66,0,0,0-2.677,1.347c-.16.176-.221.318-.047.54a11.752,11.752,0,0,0,2.344,2.4.635.635,0,0,0,.87-.012,11.686,11.686,0,0,0,2.292-2.355.38.38,0,0,0-.017-.6A3.844,3.844,0,0,0,278.231,246.194Zm13.731,2.69a4.625,4.625,0,0,0-.232-1.482,1.623,1.623,0,0,0-1.63-1.193,1.582,1.582,0,0,0-1.628,1.19,4.979,4.979,0,0,0,.016,3.04,1.516,1.516,0,0,0,1.449,1.127,1.609,1.609,0,0,0,1.649-.949A3.99,3.99,0,0,0,291.962,248.883Zm-29.917-.326c0-.4,0-.8,0-1.192a.639.639,0,0,0-.186-.5,1.821,1.821,0,0,0-2.719.178,3.015,3.015,0,0,0-.021,3.061,1.653,1.653,0,0,0,1.917.64c.817-.246,1.013-.534,1.009-1.483C262.045,249.025,262.045,248.792,262.045,248.558Z" transform="translate(-198.042 -233.397)"/><path class="c" d="M336.252,555.256a5.186,5.186,0,0,1-.4-4.407c.448-1.5,1.694-2.036,3.126-2.2a10.96,10.96,0,0,1,3.562.207c.254.055.81-.151.712.491-.12.783-.412,1.077-1.043,1.025a17.512,17.512,0,0,0-2.45-.171,4.7,4.7,0,0,0-1.038.147,1.689,1.689,0,0,0-1.254,1.291,4.389,4.389,0,0,0-.042,1.882,1.9,1.9,0,0,0,2.15,1.744c.937,0,1.874,0,2.811,0,.3,0,.594.071.7.363a1.746,1.746,0,0,1,.012,1.169c-.079.223-.378.1-.575.1q-6.36.01-12.72,0a5.839,5.839,0,0,1-2.768-.275c-.83-.434-1.508-.682-2.344.008a2.591,2.591,0,0,1-1.637.27c-2.507,0-5.013-.012-7.52.006a2.285,2.285,0,0,1-1.829-.722c-.2-.223-.309-.235-.552-.036a4.172,4.172,0,0,1-3.912.706,3.135,3.135,0,0,1-2.25-2.3,6.455,6.455,0,0,1-.077-3.605,3.363,3.363,0,0,1,3.217-2.576,15.18,15.18,0,0,1,4.111.4c.39.078.4.307.4.607q-.01,2.354,0,4.709c0,.964.2,1.169,1.146,1.171q3.478.006,6.957,0c1.221,0,1.676-.469,1.684-1.717.009-1.218,0-2.436,0-3.654,0-.295.021-.58.329-.713a2.022,2.022,0,0,1,1.242-.047c.193.041.11.329.111.508,0,1.5.022,3-.009,4.5a.758.758,0,0,0,.564.836,3.626,3.626,0,0,0,1.224.279C330.646,555.257,333.409,555.256,336.252,555.256Zm-23.292-2.833c0-.608-.029-1.219.01-1.824.028-.429-.153-.575-.541-.628a9.8,9.8,0,0,0-1.888-.08,1.958,1.958,0,0,0-2.052,1.808,4.674,4.674,0,0,0-.064,1.326,2.478,2.478,0,0,0,3.871,2.1,1.027,1.027,0,0,0,.675-1.094C312.921,553.5,312.959,552.961,312.959,552.423Z" transform="translate(-218.542 -359.517)"/><path class="c" d="M253.429,552.1c2.671,0,5.342-.008,8.012.009.433,0,.635-.08.6-.57-.058-.793-.022-1.593-.082-2.385-.108-1.42-.746-2.02-2.19-2.134a11.855,11.855,0,0,0-3.973.333c-.8.21-.745-.332-.9-.779-.214-.6.159-.629.578-.714a13.856,13.856,0,0,1,5.227-.27,3.19,3.19,0,0,1,2.91,3.174,18.728,18.728,0,0,1,.061,2.176.778.778,0,0,0,.566.848,3.954,3.954,0,0,0,1.431.312c.7,0,1.406.009,2.108,0,1.578-.022,2.224-.66,2.229-2.223.008-2.695,0-5.389,0-8.082,0-.967.132-1.059,1.1-1.087.476-.013.584.145.581.592-.018,2.764,0,5.529-.014,8.293a7.337,7.337,0,0,1-.164,1.6,2.839,2.839,0,0,1-2.31,2.357,11.269,11.269,0,0,1-4.257.031,1.593,1.593,0,0,1-.591-.21c-.485-.323-.883-.521-1.36.085-.25.318-.778.277-1.2.278q-8.012.005-16.024,0a9.474,9.474,0,0,1-1.12-.091,2.99,2.99,0,0,1-2.813-2.677,11.637,11.637,0,0,1-.137-1.748c-.015-2.6-.009-5.2,0-7.8,0-.314-.161-.759.457-.7.511.049,1.148-.153,1.221.674.015.163,0,.328,0,.492q0,4.006,0,8.012c0,1.519.647,2.191,2.177,2.2C248.181,552.11,250.805,552.1,253.429,552.1Z" transform="translate(-191.619 -356.348)"/><path class="c" d="M349.48,515.441a5.327,5.327,0,0,1-.41-4.353,3.052,3.052,0,0,1,2.605-2.168,11.307,11.307,0,0,1,4.46.186c.184.035.469.049.35.378-.165.457-.121,1.108-.851,1.1-.536-.008-1.07-.114-1.607-.143a11.44,11.44,0,0,0-1.472-.006,1.889,1.889,0,0,0-1.952,1.895,4.265,4.265,0,0,0,.09,1.535,1.886,1.886,0,0,0,2.054,1.618c.984.008,1.967,0,2.951,0,.312,0,.582.1.648.417a1.689,1.689,0,0,1-.032,1.1c-.09.181-.388.074-.592.075-5.223,0-10.446.021-15.669-.017-.725,0-.927.192-.879.884a4.962,4.962,0,0,1-.162,1.389,2.988,2.988,0,0,1-2.938,2.536,7.785,7.785,0,0,1-2.848-.25c-.773-.212-.411-.739-.359-1.191.062-.541.387-.367.712-.3a7.2,7.2,0,0,0,1.67.187c1.574-.023,2.253-.67,2.34-2.253.054-.987.054-.987-.916-.988-.492,0-.984,0-1.475,0-2.88-.043-4.469-1.973-3.979-4.83.361-2.1,1.741-3.28,4.064-3.454a11.656,11.656,0,0,1,3.538.436c.366.086.386.315.385.618-.009,1.686.012,3.373-.015,5.059-.008.469.141.591.6.588,3.092-.018,6.184-.009,9.275-.011C349.18,515.48,349.294,515.46,349.48,515.441Zm-11.949-2.47v-.7c0-2.026-.135-2.148-2.191-1.973-.07.006-.141.009-.21.019a2.494,2.494,0,0,0-2.232,2.816,2.226,2.226,0,0,0,2.411,2.346c.584.026,1.17-.012,1.754.015.377.018.486-.13.475-.487C337.516,514.329,337.531,513.65,337.531,512.971Z" transform="translate(-228.663 -343.124)"/><path class="c" d="M393.642,506.109c0,1.569.028,3.139-.015,4.708a.88.88,0,0,0,.672.989,7.418,7.418,0,0,0,4.623-.118c.63-.2.771-.847.785-1.452.025-1.031.015-2.061.015-3.092,0-1.851-.006-3.7,0-5.552a1.065,1.065,0,0,1,1.562-.848c.186.11.12.29.119.442-.01,3,0,6-.052,8.994-.035,1.915-.968,3.337-3.186,3.432a10.162,10.162,0,0,1-3.484-.122c-.5-.154-.9-.655-1.331-.7-.4-.041-.766.662-1.276.728-1.8.234-3.63.542-5.319-.5-.134-.083-.223-.2-.381.022a1.819,1.819,0,0,1-1.625.65c-2.061,0-4.123-.012-6.184.021-.51.008-.6-.207-.544-.619s-.205-1,.6-.994c1.874.015,3.749-.026,5.622.021.665.016.866-.141.858-.836-.036-2.976-.422-3.495-3.316-4.156-.638-.145-1.279-.279-1.919-.415-.757-.162-.582-.66-.493-1.2.109-.657.509-.4.835-.329a20.481,20.481,0,0,1,3.723.981,4.053,4.053,0,0,1,2.747,4.136c-.022,1.355.156,1.532,1.505,1.73a10.456,10.456,0,0,0,2.454.038,1.245,1.245,0,0,0,1.311-1.417c.028-1.639.013-3.28.014-4.919q0-2.073,0-4.146c0-.308-.015-.663.318-.794a2.284,2.284,0,0,1,1.247-.033c.214.04.107.327.107.5C393.645,502.876,393.642,504.493,393.642,506.109Z" transform="translate(-248.075 -339.748)"/><path class="c" d="M205.952,512.18c1.453,0,2.905.01,4.358,0,1.353-.012,1.8-.475,1.811-1.832.005-.727,0-1.452,0-2.179.006-.836.623-.686,1.153-.742.629-.067.525.337.525.7,0,.984.017,1.969-.009,2.952a.7.7,0,0,0,.479.751,4.17,4.17,0,0,0,2.75.2,1.125,1.125,0,0,0,.9-1.186c-.007-.843-.009-1.687,0-2.53a1.08,1.08,0,0,1,1.581-.861c.193.111.117.289.118.437.009.937.046,1.877-.009,2.811a1.122,1.122,0,0,0,.823,1.222,3.544,3.544,0,0,0,2.41.083c.864-.28,1.035-1.037,1.067-1.8.046-1.076.015-2.155.02-3.232a1.038,1.038,0,0,1,1.54-.956.249.249,0,0,1,.146.278,37.12,37.12,0,0,1-.123,4.91,2.709,2.709,0,0,1-2.361,2.434,4,4,0,0,1-3.811-.825c-.2-.185-.288-.173-.5,0a4.052,4.052,0,0,1-5.06.2c-.276-.2-.38-.175-.606.042a2.685,2.685,0,0,1-1.93.7c-3.4,0-6.795.03-10.191-.013a3.187,3.187,0,0,1-3.515-3.437c-.073-3.021-.03-6.044-.039-9.066,0-.247-.012-.489.348-.444.473.06,1.089-.231,1.3.488a2.289,2.289,0,0,1,.028.629q0,3.971,0,7.942c0,1.64.564,2.251,2.221,2.3,1.522.044,3.045.009,4.568.009Z" transform="translate(-173.317 -339.822)"/><path class="c" d="M225.974,545.975a38.646,38.646,0,0,1-.146,5.009,2.909,2.909,0,0,1-2.6,2.563,20.98,20.98,0,0,1-4.556.053c-.742-.058-1.342-.621-1.983-.762-.557-.122-1.131.728-1.893.774a20.257,20.257,0,0,1-4.275-.079,3,3,0,0,1-2.651-3.222c-.092-3.09-.037-6.184-.055-9.277,0-.319.128-.406.419-.387.5.032,1.086-.138,1.25.581a2.55,2.55,0,0,1,.014.561c0,2.695,0,5.389,0,8.083,0,1.483.646,2.125,2.141,2.156.632.013,1.265.008,1.9,0,1.23-.009,1.69-.452,1.714-1.7.022-1.124,0-2.249.006-3.374,0-1,.439-1.329,1.408-1.11.364.083.261.339.262.547.008,1.476.03,2.953-.009,4.428a.854.854,0,0,0,.688.968,3.938,3.938,0,0,0,1.163.234c1.171,0,2.343.024,3.514-.006a1.829,1.829,0,0,0,2.009-2.077c.009-2.788,0-5.576.005-8.364a1.033,1.033,0,0,1,1.524-.915c.256.128.147.37.148.561C225.978,542.7,225.974,544.178,225.974,545.975Z" transform="translate(-177.595 -356.283)"/><path class="c" d="M381.291,552.4c0,.867.012,1.734-.005,2.6-.006.325.086.457.433.451,1.171-.02,2.344.022,3.513-.027a1.836,1.836,0,0,0,1.913-2.045c.012-1.1.007-2.2,0-3.3,0-.33.069-.623.406-.741a1.974,1.974,0,0,1,1.171-.019c.189.052.1.334.1.513,0,1.359.016,2.717,0,4.076a2.876,2.876,0,0,1-2.74,3.074,28.392,28.392,0,0,1-4.141.087c-.533,0-.733.154-.666.669a1.435,1.435,0,0,1-.008.21c-.077,4.176-3.162,4.383-6.04,3.625-.721-.19-.314-.749-.273-1.169.053-.546.426-.349.721-.287a6.29,6.29,0,0,0,2.019.184,1.963,1.963,0,0,0,1.974-2.116c.063-1.1.063-1.1-1.012-1.1a9.834,9.834,0,0,1-2.859-.221,3.284,3.284,0,0,1-2.463-2.768c-.536-3.137,1.106-5.172,4.273-5.3a11.253,11.253,0,0,1,3.259.426c.353.09.437.261.431.589C381.28,550.664,381.291,551.531,381.291,552.4Zm-1.663.6c0-.678,0-1.356,0-2.034,0-.237.028-.484-.288-.552a4.38,4.38,0,0,0-3.2.261,2.783,2.783,0,0,0-1.064,3.166,2.142,2.142,0,0,0,2.2,1.6c.608.015,1.216-.012,1.823.01.366.014.564-.055.541-.489C379.6,554.307,379.628,553.652,379.628,553Z" transform="translate(-246.096 -359.691)"/><path class="c" d="M300.693,514.407a27.286,27.286,0,0,1-.209,4.847,2.9,2.9,0,0,1-2.977,2.63,8.37,8.37,0,0,1-2.719-.2c-.275-.065-.575-.181-.572-.527a2.052,2.052,0,0,1,.262-1.072c.085-.138.3-.018.462.015a8.723,8.723,0,0,0,1.878.227,1.962,1.962,0,0,0,2.208-1.942c.187-1.408.186-1.418-1.157-1.263a6.874,6.874,0,0,1-2.1-.1,3.633,3.633,0,0,1-3.147-3.935,3.912,3.912,0,0,1,3.231-4.155,9.978,9.978,0,0,1,4.442.311c.357.087.4.3.4.615C300.686,511.28,300.693,512.709,300.693,514.407Zm-1.671-1.491c0-.655-.019-1.311.008-1.966a.461.461,0,0,0-.455-.557,6.3,6.3,0,0,0-2.165-.042,2.321,2.321,0,0,0-2,2.355c-.069,1.5.458,2.381,1.657,2.734a5.194,5.194,0,0,0,2.433.045.566.566,0,0,0,.531-.674C298.994,514.182,299.022,513.549,299.022,512.917Z" transform="translate(-212.716 -343.132)"/><path class="c" d="M412.4,554.268a41.975,41.975,0,0,1-.125,4.626,3.1,3.1,0,0,1-3.41,3,8.733,8.733,0,0,1-2.367-.247c-.71-.179-.543-.63-.469-1.15.088-.622.441-.464.8-.4a6.126,6.126,0,0,0,2.226.166,1.851,1.851,0,0,0,1.656-1.727,1.957,1.957,0,0,0,.018-.21c.014-.421.184-.936,0-1.238-.25-.415-.746.019-1.14.025a9.126,9.126,0,0,1-2.442-.2,3.575,3.575,0,0,1-2.783-3.795c-.006-2.168,1.005-3.645,2.874-4.133a9.377,9.377,0,0,1,4.852.248c.371.1.305.356.306.6C412.405,551.218,412.4,552.6,412.4,554.268Zm-1.679-1.355c0-.678-.007-1.356,0-2.034,0-.263-.039-.456-.345-.5a5.617,5.617,0,0,0-2.5.006,2.416,2.416,0,0,0-1.771,2.556,2.322,2.322,0,0,0,1.59,2.454,5.122,5.122,0,0,0,2.427.086c.438-.078.643-.258.608-.739C410.692,554.132,410.725,553.522,410.725,552.914Z" transform="translate(-258.99 -359.686)"/><path class="c" d="M264.333,513.758c-1.616,0-3.231,0-4.847,0-.345,0-.675.036-.6-.484.069-.446-.189-1.079.6-1.1a24.647,24.647,0,0,1,2.738.011c.755.063.885-.223.868-.9-.045-1.848-.018-3.7-.014-5.548a1.012,1.012,0,0,1,1.506-.978c.268.125.152.366.153.553.009,2.037.035,4.074-.011,6.11-.014.646.2.789.8.762,1.028-.049,2.06,0,3.089-.018,1.784-.036,2.4-.67,2.4-2.437q0-4.038,0-8.078c0-.315-.009-.664.318-.792a2.278,2.278,0,0,1,1.247-.03c.187.035.113.28.113.434,0,2.9.031,5.807-.018,8.709-.035,2.054-.854,3.219-2.388,3.613a6.845,6.845,0,0,1-1.741.175C267.143,513.754,265.738,513.758,264.333,513.758Z" transform="translate(-198.742 -339.806)"/><path class="b" d="M392.545,271.177a5.434,5.434,0,0,1-5.482,5.806,4.749,4.749,0,0,1-3.771-2.015,6.473,6.473,0,0,1-.584-7.024,4.564,4.564,0,0,1,4.236-2.759,5.376,5.376,0,0,1,4.888,2.881A6.285,6.285,0,0,1,392.545,271.177Zm-1.49-.319a5.623,5.623,0,0,0-.049-.787,4.531,4.531,0,0,0-.271-.941,3.721,3.721,0,0,0-6.328-1.218,5.188,5.188,0,0,0,.582,6.777,3.446,3.446,0,0,0,4.771-.138A4.417,4.417,0,0,0,391.055,270.858Z" transform="translate(-249.702 -242.256)"/><path class="b" d="M224.657,276.986a5.492,5.492,0,0,1-5.349-4.991,6.813,6.813,0,0,1,.133-2.713c.595-2.122,1.828-3.682,4.09-4.047a5.131,5.131,0,0,1,5.312,2.422,6.381,6.381,0,0,1-1.431,8.439A4.448,4.448,0,0,1,224.657,276.986Zm3.672-5.919a5.843,5.843,0,0,0-.165-1.508,4.242,4.242,0,0,0-3.628-2.985,3.545,3.545,0,0,0-3.471,2.369,5.144,5.144,0,0,0,.506,4.96,3.527,3.527,0,0,0,5.844.2A4.28,4.28,0,0,0,228.329,271.067Z" transform="translate(-182.325 -242.244)"/><path class="b" d="M250,271.181a5.852,5.852,0,0,1-2.043,4.609,4.944,4.944,0,0,1-7.165-.763,6.476,6.476,0,0,1-.757-6.892,4.836,4.836,0,0,1,5.229-2.942,5.632,5.632,0,0,1,4.606,4.6C249.924,270.234,249.955,270.678,250,271.181Zm-1.5-.151a8.64,8.64,0,0,0-.059-.98,4.515,4.515,0,0,0-.27-.942,3.719,3.719,0,0,0-6.371-1.169,5.2,5.2,0,0,0,.569,6.675,3.443,3.443,0,0,0,4.821-.087A4.284,4.284,0,0,0,248.506,271.03Z" transform="translate(-190.668 -242.232)"/><path class="b" d="M366.9,276.982a5,5,0,0,1-4.416-2.567,6.49,6.49,0,0,1-.192-6.569,4.806,4.806,0,0,1,5.2-2.636,5.7,5.7,0,0,1,4.53,4.687,6.514,6.514,0,0,1-1.33,5.271A4.822,4.822,0,0,1,366.9,276.982Zm3.72-5.929a5.8,5.8,0,0,0-.165-1.509,4.243,4.243,0,0,0-3.629-2.984,3.543,3.543,0,0,0-3.47,2.37,5.146,5.146,0,0,0,.506,4.96,3.527,3.527,0,0,0,5.844.2A4.274,4.274,0,0,0,370.625,271.053Z" transform="translate(-241.236 -242.23)"/><path class="b" d="M307.811,462.653a5.55,5.55,0,0,1,5.429,5.275,6.518,6.518,0,0,1-.978,4.21,4.979,4.979,0,0,1-8.316.195,6.541,6.541,0,0,1,.517-8.322A4.424,4.424,0,0,1,307.811,462.653Zm4,5.962a4.988,4.988,0,0,0-.162-1.53,4.067,4.067,0,0,0-3.313-2.981,3.267,3.267,0,0,0-3.461,1.643,5.318,5.318,0,0,0,.342,5.875,3.473,3.473,0,0,0,3.346,1.363A4.067,4.067,0,0,0,311.815,468.616Z" transform="translate(-216.887 -324.027)"/><path class="b" d="M346.08,276.995a4.806,4.806,0,0,1-3.854-2.28,6.458,6.458,0,0,1-.43-6.737,4.612,4.612,0,0,1,4.153-2.791,5.224,5.224,0,0,1,4.934,2.789,6.4,6.4,0,0,1-1.456,8.013A5.038,5.038,0,0,1,346.08,276.995Zm4.113-6.029a4.264,4.264,0,0,0-.161-1.317,4.079,4.079,0,0,0-3.289-3.01,3.214,3.214,0,0,0-3.306,1.4,5.166,5.166,0,0,0,.685,6.66,3.432,3.432,0,0,0,4.667-.056A4.437,4.437,0,0,0,350.193,270.966Z" transform="translate(-232.768 -242.255)"/><path class="b" d="M328.048,462.655a5.56,5.56,0,0,1,5.39,5.167,6.547,6.547,0,0,1-1.029,4.4,4.968,4.968,0,0,1-8.19.2,6.6,6.6,0,0,1,.319-8.285A4.534,4.534,0,0,1,328.048,462.655Zm3.961,5.713a4.479,4.479,0,0,0-.308-1.748,3.759,3.759,0,0,0-6.2-1.432,5.169,5.169,0,0,0,.461,6.987,3.415,3.415,0,0,0,2.878.806C330.808,472.62,332.1,470.781,332.009,468.368Z" transform="translate(-225.258 -324.028)"/><path class="b" d="M390.917,468.5a5.928,5.928,0,0,1,1.411-4.168c2.085-2.434,5.717-2.247,7.889.385a6.443,6.443,0,0,1-.653,8.442,5.018,5.018,0,0,1-7.686-1.208A6.183,6.183,0,0,1,390.917,468.5Zm5.074-4.45a3.024,3.024,0,0,0-2.124.779,5.076,5.076,0,0,0,.054,7.323,3.5,3.5,0,0,0,5.193-.636,5.052,5.052,0,0,0,.611-4.751A4.008,4.008,0,0,0,395.991,464.048Z" transform="translate(-253.418 -324.013)"/><path class="c" d="M185.857,557.419c-1.449-.063-2.9.08-4.349-.1a3.606,3.606,0,0,1-3.409-3.828,7.766,7.766,0,0,1,.261-2.082c.067-.25,0-.713.505-.515.414.162,1.076.071,1,.824-.033.325-.122.643-.172.966a2.361,2.361,0,0,0,2.042,2.963,10.107,10.107,0,0,0,2.167.118q2.7.011,5.406,0c1.5-.009,2.087-.579,2.123-2.074.026-1.076.012-2.153.008-3.229,0-.316,0-.627.339-.778a2.358,2.358,0,0,1,1.243-.061c.113.011.114.187.11.3a38.6,38.6,0,0,1-.107,4.766,2.847,2.847,0,0,1-2.748,2.62C188.806,557.5,187.329,557.359,185.857,557.419Z" transform="translate(-165.291 -360.021)"/><path class="c" d="M321.6,511.685c0,.8.047,1.595-.01,2.387a2.867,2.867,0,0,1-2.753,2.918,7.566,7.566,0,0,1-1.96,0,3.564,3.564,0,0,1-3.139-2.713,5.447,5.447,0,0,1,.039-3.182,3.851,3.851,0,0,1,3.761-2.741,14.772,14.772,0,0,1,3.75.448c.3.058.344.227.34.492-.014.8-.005,1.592-.005,2.388Zm-1.657.507V511.7c0-1.709,0-1.661-1.7-1.721-2.37-.084-3.16,1.443-2.908,3.447a2.592,2.592,0,0,0,3.954,1.637,1.474,1.474,0,0,0,.654-1.255C319.948,513.269,319.946,512.73,319.947,512.192Z" transform="translate(-221.37 -342.948)"/><path class="b" d="M201.718,373.113c.143,3.052-1.773,5.585-4.4,5.939a4.633,4.633,0,0,1-4.712-2.171,6.233,6.233,0,0,1-.406-6.6,4.89,4.89,0,0,1,8.393-.574A5.525,5.525,0,0,1,201.718,373.113Zm-9.118.061a5.247,5.247,0,0,0,.973,3.165,3.686,3.686,0,0,0,6.092.1,5.066,5.066,0,0,0,.8-4.407,4.114,4.114,0,0,0-3.1-3.213,3.394,3.394,0,0,0-3.708,1.229A4.832,4.832,0,0,0,192.6,373.174Z" transform="translate(-170.816 -284.664)"/><path class="b" d="M221.986,373.4a5.723,5.723,0,0,1-1.5,4.054,4.783,4.783,0,0,1-7.509-.363,6.57,6.57,0,0,1-.33-7.208,4.676,4.676,0,0,1,4.863-2.23,5.464,5.464,0,0,1,4.308,4.216C221.909,372.373,221.931,372.889,221.986,373.4Zm-1.147-.158a4.267,4.267,0,0,0-.15-1.3,4.214,4.214,0,0,0-3.04-3.112,3.391,3.391,0,0,0-3.588,1.007,5.281,5.281,0,0,0,.521,7.32,3.555,3.555,0,0,0,2.96.777A4.362,4.362,0,0,0,220.84,373.243Z" transform="translate(-179.215 -284.656)"/><path class="c" d="M182.108,516.88c-1.053,0-2.107-.024-3.16.011-.473.016-.646-.14-.573-.592.066-.407-.237-1.018.571-1.015,1.311.005,2.622,0,3.933,0h1.264c1.318,0,1.321,0,1.3-1.35-.005-.327-.035-.654-.055-.981a2.358,2.358,0,0,0-1.737-2.223,27.137,27.137,0,0,0-3.268-.789c-.493-.105-.859-.269-.749-.938s.383-.814,1.024-.646a24.29,24.29,0,0,1,3.708,1.018,4.033,4.033,0,0,1,2.657,4.055c-.009.585.016,1.173-.033,1.754-.1,1.217-.571,1.653-1.793,1.68-1.029.023-2.06,0-3.09,0Z" transform="translate(-165.399 -342.927)"/><path class="c" d="M252.189,514.862c0,1.451.009,2.9,0,4.353-.02,2.342-1.114,3.271-3.434,2.93a5.582,5.582,0,0,1-.616-.134.943.943,0,0,1-.581-1.542.207.207,0,0,1,.292-.076c.13.052.261.1.394.146,1.608.513,2.262.049,2.263-1.615q0-4.143,0-8.286a1.014,1.014,0,0,1,1.5-1.013c.305.113.171.354.172.532C252.195,511.726,252.189,513.294,252.189,514.862Z" transform="translate(-193.962 -343.436)"/><path class="c" d="M296.169,547.32q0-2.81,0-5.621a1.028,1.028,0,0,1,1.5-1.029c.324.123.186.4.187.6.01,2.482.006,4.965.006,7.448q0,2.108,0,4.217c0,.3-.035.587-.37.676a1.963,1.963,0,0,1-1.235-.008c-.185-.074-.088-.341-.089-.52C296.167,551.162,296.169,549.24,296.169,547.32Z" transform="translate(-214.175 -356.292)"/><path class="c" d="M287.295,507.143q0,2.843,0,5.686a1.065,1.065,0,0,1-1.568.91c-.187-.107-.121-.286-.121-.437q-.005-5.861-.005-11.723c0-.326.046-.652.392-.739a1.963,1.963,0,0,1,1.23.021c.165.069.07.345.071.525Q287.3,504.264,287.295,507.143Z" transform="translate(-209.804 -339.804)"/><path class="c" d="M264.716,528.444c-.445,0-.89.011-1.334,0-.192-.007-.468.111-.542-.17-.063-.241-.117-.576.121-.718.33-.2.25-.424.214-.7a1.621,1.621,0,0,1,1.433-1.967,4.211,4.211,0,0,1,1.674.041c.281.065.556.065.464.5-.077.361-.156.619-.616.56a7.324,7.324,0,0,0-1.189-.035.677.677,0,0,0-.736.685c-.016.467.329.663.716.719a6.077,6.077,0,0,0,1.191.031c.473-.025.6.2.611.633.018.5-.3.428-.6.429C265.652,528.445,265.184,528.444,264.716,528.444Z" transform="translate(-200.36 -349.77)"/><path class="c" d="M235.846,506.409a1.073,1.073,0,0,1-1.064-1.079,1.1,1.1,0,0,1,1.09-1.062,1.079,1.079,0,0,1,1.058,1.089A1.055,1.055,0,0,1,235.846,506.409Z" transform="translate(-188.763 -341.261)"/><path class="c" d="M341.093,566.125a1.08,1.08,0,0,1-1.066,1.08,1.1,1.1,0,0,1-1.08-1.073,1.07,1.07,0,0,1,1.073-1.069A1.05,1.05,0,0,1,341.093,566.125Z" transform="translate(-231.898 -366.436)"/><path class="c" d="M317.357,542.86a1.074,1.074,0,1,1-2.147-.016,1.074,1.074,0,0,1,2.147.016Z" transform="translate(-222.069 -356.797)"/><path class="c" d="M318.676,504.438a1.045,1.045,0,0,1-1.065-1.065,1.075,1.075,0,0,1,2.151.018A1.052,1.052,0,0,1,318.676,504.438Z" transform="translate(-223.063 -340.449)"/><path class="c" d="M233.574,499.829a1.057,1.057,0,0,1,1.049,1.085,1.089,1.089,0,0,1-1.1,1.047,1.052,1.052,0,0,1-1.032-1.1A1.014,1.014,0,0,1,233.574,499.829Z" transform="translate(-187.814 -339.422)"/><path class="c" d="M270.866,564.967a1.059,1.059,0,0,1,1.045,1.09,1.017,1.017,0,0,1-1.07,1.048,1.053,1.053,0,0,1-1.06-1.075A1.083,1.083,0,0,1,270.866,564.967Z" transform="translate(-203.256 -366.396)"/><path class="c" d="M219.994,566.125a1.092,1.092,0,0,1-1.071,1.08,1.057,1.057,0,0,1-1.06-1.075,1.025,1.025,0,0,1,1.054-1.068A1.066,1.066,0,0,1,219.994,566.125Z" transform="translate(-181.757 -366.435)"/><path class="c" d="M224.621,566.152a1.061,1.061,0,0,1-1.082,1.054,1.089,1.089,0,0,1-1.047-1.1,1.058,1.058,0,0,1,1.1-1.041A1.027,1.027,0,0,1,224.621,566.152Z" transform="translate(-183.674 -366.436)"/><path class="c" d="M231.228,506.412a1.066,1.066,0,0,1-1.057-1.083,1.083,1.083,0,0,1,1.084-1.062,1.06,1.06,0,0,1,1.045,1.09A1.036,1.036,0,0,1,231.228,506.412Z" transform="translate(-186.854 -341.26)"/><path class="c" d="M193.5,546.081a1.075,1.075,0,1,1-1.046-1.086A1.056,1.056,0,0,1,193.5,546.081Z" transform="translate(-170.778 -358.125)"/><path class="c" d="M312.684,542.857a1.061,1.061,0,0,1-1.066,1.07,1.076,1.076,0,0,1-1.059-1.086,1.052,1.052,0,0,1,1.075-1.058A1.03,1.03,0,0,1,312.684,542.857Z" transform="translate(-220.143 -356.796)"/><path class="c" d="M396.041,544.1A1.052,1.052,0,0,1,395,545.192a1.07,1.07,0,0,1-1.1-1.037,1.055,1.055,0,0,1,1.049-1.086A1.037,1.037,0,0,1,396.041,544.1Z" transform="translate(-254.652 -357.328)"/><path class="c" d="M336.436,566.118a1.061,1.061,0,1,1-2.121.015,1.061,1.061,0,1,1,2.121-.015Z" transform="translate(-229.98 -366.434)"/><path class="c" d="M188.837,546.063a1.062,1.062,0,1,1-1.05-1.071A1.036,1.036,0,0,1,188.837,546.063Z" transform="translate(-168.858 -358.124)"/><path class="c" d="M323.336,502.307a1.067,1.067,0,0,1,1.086,1.052,1.03,1.03,0,0,1-1.045,1.076A1.013,1.013,0,0,1,322.3,503.4,1.054,1.054,0,0,1,323.336,502.307Z" transform="translate(-225.004 -340.448)"/><path class="c" d="M400.722,544.126a1.059,1.059,0,0,1-1.069,1.066,1.032,1.032,0,0,1-1.06-1.062,1.022,1.022,0,0,1,1.055-1.062A1.053,1.053,0,0,1,400.722,544.126Z" transform="translate(-256.598 -357.327)"/><path class="c" d="M278.355,262.8c-.022.534-.269.872-.851.874a.874.874,0,0,1-.028-1.748C278.055,261.916,278.323,262.234,278.355,262.8Z" transform="translate(-206.096 -240.907)"/><path class="c" d="M273.693,261.926a.874.874,0,1,1-.863.885A.77.77,0,0,1,273.693,261.926Z" transform="translate(-204.519 -240.906)"/><path class="c" d="M331.181,262.815a.78.78,0,0,1-.857.86.77.77,0,0,1-.855-.871.759.759,0,0,1,.845-.875C330.882,261.925,331.173,262.223,331.181,262.815Z" transform="translate(-227.973 -240.908)"/><path class="c" d="M264.849,240.74a.754.754,0,0,1-.871-.844c-.006-.567.247-.877.829-.888a.757.757,0,0,1,.872.847C265.687,240.416,265.436,240.736,264.849,240.74Z" transform="translate(-200.853 -231.416)"/><path class="c" d="M260.978,239c.6,0,.881.285.882.863s-.257.872-.839.874a.869.869,0,0,1-.043-1.737Z" transform="translate(-199.272 -231.413)"/></g></g></svg>