<svg xmlns="http://www.w3.org/2000/svg" xmlns:xlink="http://www.w3.org/1999/xlink" width="48.033" height="48.033" viewBox="0 0 48.033 48.033"><defs><style>.a{fill:#fff;}.b{filter:url(#a);}</style><filter id="a" x="0" y="0" width="48.033" height="48.033" filterUnits="userSpaceOnUse"><feOffset dy="3" input="SourceAlpha"/><feGaussianBlur stdDeviation="3" result="b"/><feFlood flood-opacity="0.161"/><feComposite operator="in" in2="b"/><feComposite in="SourceGraphic"/></filter></defs><g transform="translate(9 6)"><g class="b" transform="matrix(1, 0, 0, 1, -9, -6)"><path class="a" d="M27.623,19.713a17.052,17.052,0,0,1-5.355-.853,2.448,2.448,0,0,0-2.381.5l-3.377,2.549A18.662,18.662,0,0,1,8.12,13.522l2.474-3.289a2.428,2.428,0,0,0,.6-2.46,17.078,17.078,0,0,1-.856-5.364A2.413,2.413,0,0,0,7.925,0H2.41A2.413,2.413,0,0,0,0,2.41,27.654,27.654,0,0,0,27.623,30.033a2.413,2.413,0,0,0,2.41-2.41v-5.5A2.413,2.413,0,0,0,27.623,19.713Z" transform="translate(9 6)"/></g></g></svg>