<svg xmlns="http://www.w3.org/2000/svg" xmlns:xlink="http://www.w3.org/1999/xlink" width="94" height="94" viewBox="0 0 94 94"><defs><style>.a{fill:#be894b;}.b{fill:#fff;}.c{filter:url(#c);}.d{filter:url(#a);}</style><filter id="a" x="0" y="0" width="94" height="94" filterUnits="userSpaceOnUse"><feOffset dy="6" input="SourceAlpha"/><feGaussianBlur stdDeviation="4" result="b"/><feFlood flood-opacity="0.278"/><feComposite operator="in" in2="b"/><feComposite in="SourceGraphic"/></filter><filter id="c" x="22.982" y="22.798" width="48.034" height="42.408" filterUnits="userSpaceOnUse"><feOffset dy="3" input="SourceAlpha"/><feGaussianBlur stdDeviation="3" result="d"/><feFlood flood-opacity="0.161"/><feComposite operator="in" in2="d"/><feComposite in="SourceGraphic"/></filter></defs><g transform="translate(-1838 -606)"><g class="d" transform="matrix(1, 0, 0, 1, 1838, 606)"><rect class="a" width="70" height="70" transform="translate(12 6)"/></g><g class="c" transform="matrix(1, 0, 0, 1, 1838, 606)"><path class="b" d="M55.137,36.918a12.294,12.294,0,0,1-3.539.969,6.179,6.179,0,0,0,2.71-3.408,12.335,12.335,0,0,1-3.913,1.495,6.167,6.167,0,0,0-10.5,5.621,17.491,17.491,0,0,1-12.7-6.439A6.169,6.169,0,0,0,29.1,43.382a6.118,6.118,0,0,1-2.791-.772c0,.026,0,.052,0,.078a6.165,6.165,0,0,0,4.943,6.041,6.186,6.186,0,0,1-2.782.107,6.168,6.168,0,0,0,5.756,4.279A12.439,12.439,0,0,1,25.1,55.667a17.429,17.429,0,0,0,9.445,2.769c11.334,0,17.532-9.389,17.532-17.532,0-.267-.006-.533-.018-.8a12.5,12.5,0,0,0,3.075-3.189Z" transform="translate(6.88 -5.23)"/></g></g></svg>