<svg xmlns="http://www.w3.org/2000/svg" xmlns:xlink="http://www.w3.org/1999/xlink" width="130" height="130" viewBox="0 0 130 130"><defs><style>.a{fill:#be894b;}.b{fill:#fff;}.c{filter:url(#c);}.d{filter:url(#a);}</style><filter id="a" x="0" y="0" width="130" height="130" filterUnits="userSpaceOnUse"><feOffset input="SourceAlpha"/><feGaussianBlur stdDeviation="10" result="b"/><feFlood flood-opacity="0.2"/><feComposite operator="in" in2="b"/><feComposite in="SourceGraphic"/></filter><filter id="c" x="40.984" y="43.984" width="48.033" height="48.033" filterUnits="userSpaceOnUse"><feOffset dy="3" input="SourceAlpha"/><feGaussianBlur stdDeviation="3" result="d"/><feFlood flood-opacity="0.161"/><feComposite operator="in" in2="d"/><feComposite in="SourceGraphic"/></filter></defs><g transform="translate(-1820 -414)"><g class="d" transform="matrix(1, 0, 0, 1, 1820, 414)"><rect class="a" width="70" height="70" transform="translate(30 30)"/></g><g transform="translate(1869.984 463.984)"><g class="c" transform="matrix(1, 0, 0, 1, -49.98, -49.98)"><path class="b" d="M27.623,19.713a17.052,17.052,0,0,1-5.355-.853,2.448,2.448,0,0,0-2.381.5l-3.377,2.549A18.662,18.662,0,0,1,8.12,13.522l2.474-3.289a2.428,2.428,0,0,0,.6-2.46,17.078,17.078,0,0,1-.856-5.364A2.413,2.413,0,0,0,7.925,0H2.41A2.413,2.413,0,0,0,0,2.41,27.654,27.654,0,0,0,27.623,30.033a2.413,2.413,0,0,0,2.41-2.41v-5.5A2.413,2.413,0,0,0,27.623,19.713Z" transform="translate(49.98 49.98)"/></g></g></g></svg>