<svg xmlns="http://www.w3.org/2000/svg" xmlns:xlink="http://www.w3.org/1999/xlink" width="42.298" height="51.231" viewBox="0 0 42.298 51.231"><defs><style>.a{fill:#fff;}.b{filter:url(#a);}</style><filter id="a" x="0" y="0" width="42.298" height="51.231" filterUnits="userSpaceOnUse"><feOffset dy="3" input="SourceAlpha"/><feGaussianBlur stdDeviation="3" result="b"/><feFlood flood-opacity="0.161"/><feComposite operator="in" in2="b"/><feComposite in="SourceGraphic"/></filter></defs><g transform="translate(-59.817 6)"><g transform="translate(68.817)"><g class="b" transform="matrix(1, 0, 0, 1, -9, -6)"><path class="a" d="M80.966,0A12.273,12.273,0,0,0,68.817,12.367c0,3.814,1.929,8.444,5.734,13.761A60.636,60.636,0,0,0,80.2,32.91a1.087,1.087,0,0,0,1.525.017,54.733,54.733,0,0,0,5.656-6.611c3.808-5.238,5.739-9.931,5.739-13.949A12.274,12.274,0,0,0,80.966,0Zm0,17.706a5.939,5.939,0,1,1,5.939-5.939A5.946,5.946,0,0,1,80.966,17.706Z" transform="translate(-59.82 6)"/></g></g></g></svg>