<svg xmlns="http://www.w3.org/2000/svg" width="141.922" height="76.394" viewBox="0 0 141.922 76.394"><defs><style>.a{fill:#fff;}</style></defs><g transform="translate(-1030.287 -3803.494)"><path class="a" d="M208.731,161.574a2.951,2.951,0,0,0,2.809-3.854l-4.651-14.461,12.266-9.012a2.95,2.95,0,0,0-1.747-5.328H202.23L197.5,114.5a2.95,2.95,0,0,0-5.607,0l-4.733,14.421H171.978a2.95,2.95,0,0,0-1.747,5.328L182.5,143.26l-4.651,14.461a2.951,2.951,0,0,0,4.536,3.3l12.311-8.889L207,161.016A2.94,2.94,0,0,0,208.731,161.574ZM196.42,146.1a2.95,2.95,0,0,0-3.455,0l-6.749,4.873,2.549-7.925a2.951,2.951,0,0,0-1.062-3.281l-6.726-4.942h8.316a2.95,2.95,0,0,0,2.8-2.031l2.6-7.91,2.6,7.91a2.951,2.951,0,0,0,2.8,2.031h8.316l-6.726,4.942a2.951,2.951,0,0,0-1.062,3.281l2.549,7.925Z" transform="translate(906.555 3691.027)"/><path class="a" d="M199.394,150.025a2.257,2.257,0,0,0,2.148-2.948l-3.557-11.06,9.381-6.893a2.257,2.257,0,0,0-1.336-4.075H194.421l-3.62-11.03a2.257,2.257,0,0,0-4.288,0l-3.62,11.03H171.284a2.257,2.257,0,0,0-1.336,4.075l9.381,6.893-3.557,11.06a2.257,2.257,0,0,0,3.469,2.521l9.416-6.8,9.416,6.8A2.249,2.249,0,0,0,199.394,150.025Zm-9.416-11.839a2.256,2.256,0,0,0-2.642,0l-5.162,3.727,1.95-6.061a2.257,2.257,0,0,0-.812-2.51l-5.144-3.78h6.36a2.257,2.257,0,0,0,2.144-1.553l1.985-6.05,1.985,6.05a2.257,2.257,0,0,0,2.144,1.553h6.36L194,133.343a2.257,2.257,0,0,0-.812,2.51l1.95,6.061Z" transform="translate(963.922 3729.863)"/><path class="a" d="M199.394,150.025a2.257,2.257,0,0,0,2.148-2.948l-3.557-11.06,9.381-6.893a2.257,2.257,0,0,0-1.336-4.075H194.421l-3.62-11.03a2.257,2.257,0,0,0-4.288,0l-3.62,11.03H171.284a2.257,2.257,0,0,0-1.336,4.075l9.381,6.893-3.557,11.06a2.257,2.257,0,0,0,3.469,2.521l9.416-6.8,9.416,6.8A2.249,2.249,0,0,0,199.394,150.025Zm-9.416-11.839a2.256,2.256,0,0,0-2.642,0l-5.162,3.727,1.95-6.061a2.257,2.257,0,0,0-.812-2.51l-5.144-3.78h6.36a2.257,2.257,0,0,0,2.144-1.553l1.985-6.05,1.985,6.05a2.257,2.257,0,0,0,2.144,1.553h6.36L194,133.343a2.257,2.257,0,0,0-.812,2.51l1.95,6.061Z" transform="translate(861.26 3729.863)"/></g></svg>