<svg xmlns="http://www.w3.org/2000/svg" width="94.731" height="107.382" viewBox="0 0 94.731 107.382"><defs><style>.a{fill:#fff;}</style></defs><g transform="translate(90.84 0)"><g transform="translate(-90.84 0)"><path class="a" d="M124.611,94.725,108.839,67.408a4.211,4.211,0,0,1,2.235-1.36,8.415,8.415,0,0,0,5.677-11.789,4.21,4.21,0,0,1,1.161-5.086,8.415,8.415,0,0,0,0-13.085A4.21,4.21,0,0,1,116.751,31a8.415,8.415,0,0,0-5.677-11.789,4.21,4.21,0,0,1-3.253-4.079,8.415,8.415,0,0,0-10.23-8.158,4.21,4.21,0,0,1-4.7-2.264A8.415,8.415,0,0,0,80.134,1.8a4.209,4.209,0,0,1-5.217,0A8.415,8.415,0,0,0,62.161,4.713a4.21,4.21,0,0,1-4.7,2.264,8.415,8.415,0,0,0-10.23,8.158,4.21,4.21,0,0,1-3.253,4.079A8.415,8.415,0,0,0,38.3,31a4.21,4.21,0,0,1-1.161,5.086,8.415,8.415,0,0,0,0,13.085A4.21,4.21,0,0,1,38.3,54.259a8.415,8.415,0,0,0,5.677,11.789,4.209,4.209,0,0,1,2.235,1.36L30.441,94.725A2.1,2.1,0,0,0,32.807,97.8l10.985-2.98,2.912,11a2.1,2.1,0,0,0,3.844.512L64,83.024a8.417,8.417,0,0,0,10.914.436,4.209,4.209,0,0,1,5.217,0,8.376,8.376,0,0,0,5.188,1.8,8.446,8.446,0,0,0,5.726-2.238l13.458,23.309a2.1,2.1,0,0,0,3.844-.512l2.912-11,10.985,2.98a2.1,2.1,0,0,0,2.365-3.073ZM49.457,99.831,47.306,91.7a2.1,2.1,0,0,0-2.576-1.488l-8.113,2.2L47.785,73.074a8.416,8.416,0,0,0,9.676,5.211,4.208,4.208,0,0,1,3.821,1.065ZM86.274,80.959a4.2,4.2,0,0,1-3.547-.8,8.393,8.393,0,0,0-10.4,0,4.221,4.221,0,0,1-6.4-1.461,8.394,8.394,0,0,0-9.371-4.513A4.221,4.221,0,0,1,51.425,70.1a8.393,8.393,0,0,0-6.485-8.132,4.221,4.221,0,0,1-2.847-5.913,8.393,8.393,0,0,0-2.315-10.14,4.221,4.221,0,0,1,0-6.563,8.394,8.394,0,0,0,2.315-10.141A4.221,4.221,0,0,1,44.94,23.3a8.393,8.393,0,0,0,6.485-8.132,4.221,4.221,0,0,1,5.131-4.092,8.394,8.394,0,0,0,9.371-4.513,4.221,4.221,0,0,1,6.4-1.461,8.393,8.393,0,0,0,10.4,0,4.221,4.221,0,0,1,6.4,1.461A8.394,8.394,0,0,0,98.5,11.072a4.221,4.221,0,0,1,5.131,4.092,8.393,8.393,0,0,0,6.485,8.132,4.221,4.221,0,0,1,2.847,5.913,8.393,8.393,0,0,0,2.315,10.14,4.221,4.221,0,0,1,0,6.563,8.394,8.394,0,0,0-2.315,10.141,4.221,4.221,0,0,1-2.847,5.913,8.393,8.393,0,0,0-6.485,8.132A4.221,4.221,0,0,1,98.5,74.189,8.393,8.393,0,0,0,89.125,78.7,4.2,4.2,0,0,1,86.274,80.959Zm24.048,9.258a2.1,2.1,0,0,0-2.576,1.488l-2.151,8.127L93.77,79.35a4.207,4.207,0,0,1,3.821-1.065,8.416,8.416,0,0,0,9.676-5.211l11.169,19.344Z" transform="translate(-30.16 0)"/><path class="a" d="M197.248,147.371a2.1,2.1,0,0,0,2-2.739l-3.306-10.278,8.718-6.406a2.1,2.1,0,0,0-1.242-3.787H192.626l-3.364-10.25a2.1,2.1,0,0,0-3.985,0l-3.364,10.25H171.125a2.1,2.1,0,0,0-1.242,3.787l8.718,6.406L175.3,144.631a2.1,2.1,0,0,0,3.224,2.342l8.751-6.318,8.751,6.318A2.09,2.09,0,0,0,197.248,147.371Zm-8.75-11a2.1,2.1,0,0,0-2.455,0l-4.8,3.464,1.812-5.633a2.1,2.1,0,0,0-.755-2.332l-4.781-3.513h5.911a2.1,2.1,0,0,0,1.993-1.443l1.845-5.622,1.845,5.622a2.1,2.1,0,0,0,1.993,1.443h5.911l-4.781,3.513a2.1,2.1,0,0,0-.755,2.332l1.812,5.633Z" transform="translate(-139.904 -88.88)"/><path class="a" d="M174.731,92.633a29.361,29.361,0,1,0-39.373,27.609,2.1,2.1,0,0,0,1.43-3.943,25.167,25.167,0,1,1,17.162,0,2.1,2.1,0,1,0,1.43,3.943A29.452,29.452,0,0,0,174.731,92.633Z" transform="translate(-98.004 -50.002)"/><path class="a" d="M248.105,323.27a2.1,2.1,0,1,0,1.483.614A2.113,2.113,0,0,0,248.105,323.27Z" transform="translate(-200.74 -255.473)"/></g></g></svg>