<svg xmlns="http://www.w3.org/2000/svg" width="87.816" height="122.114" viewBox="0 0 87.816 122.114"><defs><style>.a{fill:#fff;}</style></defs><g transform="translate(-71.902)"><g transform="translate(71.902)"><path class="a" d="M126.887,0A43.865,43.865,0,0,0,86.6,26.375,1.789,1.789,0,1,0,89.879,27.8a40.351,40.351,0,0,1,74.106,31.953,1.789,1.789,0,1,0,3.288,1.408A43.927,43.927,0,0,0,126.887,0Z" transform="translate(-82.979)"/><path class="a" d="M151.543,172.413a1.789,1.789,0,0,0-2.488.46A40.262,40.262,0,0,1,136.928,184.4a13.186,13.186,0,0,0-6.131,9.518l-.51,3.763H101.333l-.51-3.766a13.347,13.347,0,0,0-6.23-9.575A40.453,40.453,0,0,1,76.37,141.532a1.789,1.789,0,0,0-3.5-.745,44.573,44.573,0,0,0-.969,9.163,43.884,43.884,0,0,0,20.807,37.433,9.782,9.782,0,0,1,4.57,7.015l.469,3.462a4.2,4.2,0,0,0-3,4.022v2.891a4.2,4.2,0,0,0,2.525,3.848,4.177,4.177,0,0,0-.115.961v2.891a4.2,4.2,0,0,0,4.2,4.2h.484l1.385,6.371a6.645,6.645,0,0,0,6.456,5.2h12.26a6.645,6.645,0,0,0,6.457-5.2l1.385-6.371h.484a4.2,4.2,0,0,0,4.2-4.2v-2.891a4.178,4.178,0,0,0-.115-.961,4.2,4.2,0,0,0,2.525-3.848v-2.891a4.2,4.2,0,0,0-3-4.022l.469-3.46a9.621,9.621,0,0,1,4.463-6.951A43.818,43.818,0,0,0,152,174.9a1.789,1.789,0,0,0-.46-2.488Zm-18.868,32.979H98.945a.621.621,0,0,1-.621-.621v-2.891a.621.621,0,0,1,.621-.621h33.73a.621.621,0,0,1,.621.621v2.891A.621.621,0,0,1,132.674,205.392Zm-1.789,7.079a.621.621,0,0,1-.62.62h-14.11a1.789,1.789,0,1,0,0,3.578h9.965l-1.22,5.611a3.047,3.047,0,0,1-2.961,2.386h-12.26a3.047,3.047,0,0,1-2.961-2.386l-1.22-5.611h2.309a1.789,1.789,0,1,0,0-3.578h-6.454a.621.621,0,0,1-.62-.62v-2.891a.619.619,0,0,1,.535-.611H130.35a.619.619,0,0,1,.535.611v2.891Z" transform="translate(-71.902 -106.131)"/><path class="a" d="M236.194,280.911a6.167,6.167,0,1,0,6.167,6.167A6.174,6.174,0,0,0,236.194,280.911Zm0,8.757a2.589,2.589,0,1,1,2.589-2.589A2.593,2.593,0,0,1,236.194,289.668Z" transform="translate(-192.314 -213.913)"/><path class="a" d="M199.505,97.774A19.585,19.585,0,0,0,193.74,59.6c-.136,0-.27,0-.405,0a19.578,19.578,0,0,0-19.585,19.589,6.167,6.167,0,1,0,12.334,0,7.381,7.381,0,0,1,.071-1.02,7.254,7.254,0,1,1,7.185,8.275,6.174,6.174,0,0,0-6.167,6.167v8.426a6.167,6.167,0,0,0,12.334,0V97.775ZM197.274,94.7a1.789,1.789,0,0,0-1.346,1.733v4.6a2.589,2.589,0,1,1-5.179,0V92.61a2.592,2.592,0,0,1,2.589-2.589,10.838,10.838,0,0,0,10.818-11.412,10.858,10.858,0,0,0-10.589-10.25l-.243,0a10.822,10.822,0,0,0-10.818,10.833,2.589,2.589,0,1,1-5.179,0,16.173,16.173,0,0,1,.155-2.231,16.009,16.009,0,0,1,15.855-13.781c.11,0,.221,0,.332,0a16.057,16.057,0,0,1,15.661,15.16A16,16,0,0,1,197.274,94.7Z" transform="translate(-149.458 -45.384)"/></g></g></svg>