<svg xmlns="http://www.w3.org/2000/svg" width="123.445" height="123.445" viewBox="0 0 123.445 123.445"><defs><style>.a{fill:#be894b;stroke:#fff;stroke-width:0.5px;}</style></defs><g transform="translate(0.25 0.25)"><path class="a" d="M121.144,257.422h-7.418v-28.1a1.8,1.8,0,1,0-3.6,0v28.1h-15.8V195.532h15.8v25.389a1.8,1.8,0,1,0,3.6,0v-27.19a1.8,1.8,0,0,0-1.8-1.8h-19.4a1.8,1.8,0,0,0-1.8,1.8v63.691H86.56V203.434a1.8,1.8,0,0,0-1.8-1.8H65.354a1.8,1.8,0,0,0-1.8,1.8v53.989h-4.16V217.988a1.8,1.8,0,0,0-1.8-1.8H38.186a1.8,1.8,0,0,0-1.8,1.8v39.435h-4.16V229.631a1.8,1.8,0,0,0-1.8-1.8H11.018a1.8,1.8,0,0,0-1.8,1.8v27.791H1.8a1.8,1.8,0,0,0-1.8,1.8v7.763a1.8,1.8,0,0,0,1.8,1.8h19.45a1.8,1.8,0,1,0,0-3.6H3.6v-4.161H119.343v4.161H29.656a1.8,1.8,0,1,0,0,3.6h91.489a1.8,1.8,0,0,0,1.8-1.8v-7.763a1.8,1.8,0,0,0-1.8-1.8Zm-53.99-52.188h15.8v52.188h-15.8ZM39.987,219.789h15.8v37.634h-15.8ZM12.819,231.432h15.8v25.99h-15.8Z" transform="translate(0 -145.842)"/><path class="a" d="M39.181,65.7H66.589a5.7,5.7,0,0,0,4.19-1.842L93.1,39.5h15.208a5.645,5.645,0,0,0,4.018-1.663L130.768,19.4v5.689a1.8,1.8,0,0,0,1.8,1.8h7.761a1.8,1.8,0,0,0,1.8-1.8V5.681A5.688,5.688,0,0,0,136.45,0h-19.4a1.8,1.8,0,0,0-1.8,1.8V9.564a1.8,1.8,0,0,0,1.8,1.8h5.687L105.959,28.138H90.6a5.693,5.693,0,0,0-4.187,1.842L64.09,54.336H59.124a1.8,1.8,0,0,0,0,3.6h5.758a1.8,1.8,0,0,0,1.327-.584l22.863-24.94A2.083,2.083,0,0,1,90.6,31.74h16.1a1.8,1.8,0,0,0,1.273-.528l20.375-20.375a1.8,1.8,0,0,0-1.273-3.074h-8.234V3.6h17.6a2.082,2.082,0,0,1,2.079,2.08V23.288H134.37V15.051a1.8,1.8,0,0,0-3.074-1.273L109.783,35.291a2.067,2.067,0,0,1-1.471.608h-16a1.8,1.8,0,0,0-1.328.584l-22.86,24.94a2.085,2.085,0,0,1-1.534.674H40.982V57.938h9.737a1.8,1.8,0,1,0,0-3.6H39.181a1.8,1.8,0,0,0-1.8,1.8V63.9a1.8,1.8,0,0,0,1.8,1.8Z" transform="translate(-28.404 0)"/></g></svg>