<svg xmlns="http://www.w3.org/2000/svg" width="102.864" height="114.307" viewBox="0 0 102.864 114.307"><defs><style>.a{fill:#be894b;}</style></defs><path class="a" d="M107.2,56.138h7.973a3.273,3.273,0,0,0,3.269-3.269V44.9a3.273,3.273,0,0,0-3.269-3.269H107.2a3.273,3.273,0,0,0-3.269,3.269v7.973A3.273,3.273,0,0,0,107.2,56.138Zm.08-11.163H115.1V52.79h-7.814Zm-.08,32.372h7.973a3.273,3.273,0,0,0,3.269-3.269V66.105a3.273,3.273,0,0,0-3.269-3.269H107.2a3.273,3.273,0,0,0-3.269,3.269v7.973A3.273,3.273,0,0,0,107.2,77.348Zm.08-11.163H115.1V74h-7.814ZM84.449,56.138h7.973a3.273,3.273,0,0,0,3.269-3.269V44.9a3.273,3.273,0,0,0-3.269-3.269H84.449A3.273,3.273,0,0,0,81.18,44.9v7.973A3.273,3.273,0,0,0,84.449,56.138Zm.08-11.163h7.814V52.79H84.529ZM46.916,83.051H38.942a3.273,3.273,0,0,0-3.269,3.269v7.973a3.273,3.273,0,0,0,3.269,3.269h7.973a3.273,3.273,0,0,0,3.269-3.269V86.32A3.273,3.273,0,0,0,46.916,83.051Zm-.08,11.163H39.022V86.4h7.814Zm.08-52.587H38.942A3.273,3.273,0,0,0,35.673,44.9v7.973a3.273,3.273,0,0,0,3.269,3.269h7.973a3.273,3.273,0,0,0,3.269-3.269V44.9A3.273,3.273,0,0,0,46.916,41.627Zm-.08,11.163H39.022V44.976h7.814ZM84.449,76.85h7.973a3.273,3.273,0,0,0,3.269-3.269V65.608a3.273,3.273,0,0,0-3.269-3.269H84.449a3.273,3.273,0,0,0-3.269,3.269v7.973A3.273,3.273,0,0,0,84.449,76.85Zm.08-11.163h7.814V73.5H84.529ZM120.108,7.652h-7.159V5.092A5.1,5.1,0,0,0,107.857,0h-.769A5.1,5.1,0,0,0,102,5.092v2.56H52.121V5.092A5.1,5.1,0,0,0,47.03,0h-.769a5.1,5.1,0,0,0-5.092,5.092v2.56H34.01a8.393,8.393,0,0,0-8.383,8.383v89.9A8.381,8.381,0,0,0,34,114.307h86.12a8.381,8.381,0,0,0,8.372-8.372v-89.9a8.393,8.393,0,0,0-8.384-8.383Zm-14.762-2.56a1.745,1.745,0,0,1,1.743-1.743h.769A1.745,1.745,0,0,1,109.6,5.092v2.56h-4.255Zm-60.827,0a1.745,1.745,0,0,1,1.743-1.743h.769a1.745,1.745,0,0,1,1.743,1.743v2.56H44.518V5.092Zm80.624,100.843a5.029,5.029,0,0,1-5.023,5.023H34a5.029,5.029,0,0,1-5.023-5.023v-.01a8.34,8.34,0,0,0,5.035,1.685H101.9a8.328,8.328,0,0,0,5.928-2.456l17.316-17.316Zm-19.025-3.809a7.161,7.161,0,0,0,.2-1.688V89.261a3.827,3.827,0,0,1,3.823-3.822H121.32a7.162,7.162,0,0,0,1.688-.2ZM125.142,31.58H53.8a1.674,1.674,0,0,0,0,3.349h71.347V78.267a3.827,3.827,0,0,1-3.823,3.823H110.143a7.18,7.18,0,0,0-7.171,7.171v11.177a3.827,3.827,0,0,1-3.822,3.823H34.01a5.04,5.04,0,0,1-5.034-5.035v-64.3H47.1a1.674,1.674,0,1,0,0-3.349H28.976V16.035A5.04,5.04,0,0,1,34.01,11h7.159v4.923a5.1,5.1,0,0,0,5.092,5.092,1.674,1.674,0,0,0,0-3.349,1.745,1.745,0,0,1-1.743-1.743V11H102v4.923a5.1,5.1,0,0,0,5.092,5.092,1.674,1.674,0,1,0,0-3.349,1.745,1.745,0,0,1-1.743-1.743V11h14.763a5.04,5.04,0,0,1,5.034,5.034ZM46.916,62.339H38.942a3.273,3.273,0,0,0-3.269,3.269v7.973a3.273,3.273,0,0,0,3.269,3.269h7.973a3.273,3.273,0,0,0,3.269-3.269V65.608a3.273,3.273,0,0,0-3.269-3.269ZM46.836,73.5H39.022V65.688h7.814ZM61.7,56.138h7.973a3.273,3.273,0,0,0,3.269-3.269V44.9a3.273,3.273,0,0,0-3.269-3.269H61.7A3.273,3.273,0,0,0,58.427,44.9v7.973A3.273,3.273,0,0,0,61.7,56.138Zm.08-11.163h7.814V52.79H61.775ZM84.527,94.214a1.674,1.674,0,0,0-3.347.08,3.273,3.273,0,0,0,3.269,3.269h7.973a3.273,3.273,0,0,0,3.269-3.269V86.32a3.273,3.273,0,0,0-3.269-3.269H84.449A3.273,3.273,0,0,0,81.18,86.32v2.3a1.674,1.674,0,0,0,3.349,0V86.4h7.814v7.814ZM61.7,76.85h7.973a3.273,3.273,0,0,0,3.269-3.269V65.608a3.273,3.273,0,0,0-3.269-3.269H61.7a3.273,3.273,0,0,0-3.269,3.269v7.973A3.273,3.273,0,0,0,61.7,76.85Zm.08-11.163h7.814V73.5H61.775ZM61.7,97.563h7.973a3.273,3.273,0,0,0,3.269-3.269V86.32a3.273,3.273,0,0,0-3.269-3.269H61.7a3.273,3.273,0,0,0-3.269,3.269v7.973A3.273,3.273,0,0,0,61.7,97.563Zm.08-11.163h7.814v7.814H61.775Z" transform="translate(-25.627)"/></svg>