<svg xmlns="http://www.w3.org/2000/svg" xmlns:xlink="http://www.w3.org/1999/xlink" width="53.983" height="42.738" viewBox="0 0 53.983 42.738"><defs><style>.a{fill:#fff;}.b{filter:url(#a);}</style><filter id="a" x="0" y="0" width="53.983" height="42.738" filterUnits="userSpaceOnUse"><feOffset dy="3" input="SourceAlpha"/><feGaussianBlur stdDeviation="3" result="b"/><feFlood flood-opacity="0.161"/><feComposite operator="in" in2="b"/><feComposite in="SourceGraphic"/></filter></defs><g transform="translate(9 -74)"><g transform="translate(0 80)"><g class="b" transform="matrix(1, 0, 0, 1, -9, -6)"><path class="a" d="M34.454,82.384c-.976-1.736-2.035-2.056-4.192-2.177C28.107,80.061,22.689,80,18,80s-10.122.061-12.275.2c-2.152.124-3.214.441-4.2,2.179C.517,84.118,0,87.1,0,92.362v.018c0,5.236.517,8.245,1.523,9.961.985,1.736,2.044,2.051,4.2,2.2,2.154.126,7.574.2,12.277.2s10.111-.074,12.268-.2c2.157-.146,3.216-.461,4.192-2.2,1.014-1.716,1.527-4.725,1.527-9.961v-.018C35.983,87.1,35.47,84.118,34.454,82.384ZM13.494,99.116V85.622l11.245,6.747Z" transform="translate(9 -74)"/></g></g></g></svg>